<svg xmlns="http://www.w3.org/2000/svg" xmlns:xlink="http://www.w3.org/1999/xlink" width="780" height="551" viewBox="0 0 780 551">
  <defs>
    <clipPath id="clip-path">
      <rect id="Rectangle_648" data-name="Rectangle 648" width="780" height="551" transform="translate(0 529)" fill="#fff"/>
    </clipPath>
    <linearGradient id="linear-gradient" x1="0.717" y1="0.223" x2="0.891" y2="0.62" gradientUnits="objectBoundingBox">
      <stop offset="0" stop-color="#ffc5b1"/>
      <stop offset="1" stop-color="#f97a5d"/>
    </linearGradient>
    <linearGradient id="linear-gradient-2" x1="0.295" y1="0.63" x2="0.695" y2="1" xlink:href="#linear-gradient"/>
    <linearGradient id="linear-gradient-3" x1="0.5" x2="1.7" y2="2.149" gradientUnits="objectBoundingBox">
      <stop offset="0" stop-color="#509d7e"/>
      <stop offset="1" stop-color="#4366b8"/>
    </linearGradient>
    <linearGradient id="linear-gradient-4" x1="0.5" x2="1.664" y2="2.35" gradientUnits="objectBoundingBox">
      <stop offset="0" stop-color="#11171c"/>
      <stop offset="1" stop-color="#5978c3"/>
    </linearGradient>
    <linearGradient id="linear-gradient-5" x1="0.5" x2="1.347" y2="1.681" gradientUnits="objectBoundingBox">
      <stop offset="0" stop-color="#181819"/>
      <stop offset="1" stop-color="#5978c3"/>
    </linearGradient>
  </defs>
  <g id="Mask_Group_88" data-name="Mask Group 88" transform="translate(0 -529)" clip-path="url(#clip-path)">
    <g id="Group_6683" data-name="Group 6683">
      <path id="Path_21106" data-name="Path 21106" d="M7316.594,488.979l-62.925,45.79L7039.1,551.021l-76.659,109.413,2.972,176.712H7039.1l33.345-45.361h181.224l93.178-93.178Z" transform="translate(-7016 243)" fill="#ffbe10"/>
      <path id="Path_21107" data-name="Path 21107" d="M7562.246,338.9H7389.67L7332,455.869H7175.564l-101.7,101.7,101.7,101.7H7332l87.354,87.354,234.355-4.789,141.256-129.646V475.422L7716.829,338.9Z" transform="translate(-7016 232)" fill="#5a7dcf"/>
      <path id="Path_21108" data-name="Path 21108" d="M7073.9,557.9l256.9,2.063,93.742-74.7,371.012-9.267-78.764-137.241-327.141.174L7330.8,456.183H7176.465Z" transform="translate(-7016 232)" fill="#4766af" style="mix-blend-mode: luminosity;isolation: isolate"/>
      <path id="Path_21109" data-name="Path 21109" d="M7159.294,642.768,7074.925,558.4H7330.6l94.65-74.367,368.591-7.487v136.9h-169l-68.807,68.807h-86.611l-44.175-44.175Z" transform="translate(-7016 232)" fill="#4a6dbf"/>
      <g id="Group_6644" data-name="Group 6644" transform="translate(-279 419)">
        <path id="Path_21110" data-name="Path 21110" d="M7500.11,266.207l.814-1.273.814,1.273v3l-.814,1.273-.814-1.273Z" transform="translate(-6992.917 162)" fill="#fff"/>
        <path id="Path_21111" data-name="Path 21111" d="M0,1.273.815,0l.815,1.273v3L.815,5.548,0,4.275Z" transform="translate(510.782 428.893) rotate(90)" fill="#fff"/>
      </g>
      <g id="Group_6645" data-name="Group 6645" transform="translate(-233 398)">
        <path id="Path_21110-2" data-name="Path 21110" d="M7500.11,266.207l.814-1.273.814,1.273v3l-.814,1.273-.814-1.273Z" transform="translate(-6992.917 162)" fill="#fff"/>
        <path id="Path_21111-2" data-name="Path 21111" d="M0,1.273.815,0l.815,1.273v3L.815,5.548,0,4.275Z" transform="translate(510.782 428.893) rotate(90)" fill="#fff"/>
      </g>
      <path id="Path_21112" data-name="Path 21112" d="M7054,840.295l21.453-29.613,37.194,29.613Z" transform="translate(-7017 240)" fill="#5aad8b"/>
      <g id="Group_6646" data-name="Group 6646" transform="translate(-196 408.737)">
        <path id="Path_21110-3" data-name="Path 21110" d="M7500.109,267.185l1.44-2.251,1.44,2.251v5.31l-1.44,2.251-1.44-2.251Z" transform="translate(-6991.41 162)" fill="#fff"/>
        <path id="Path_21111-3" data-name="Path 21111" d="M0,2.251,1.441,0,2.881,2.251v5.31L1.441,9.812,0,7.561Z" transform="translate(515.045 430.399) rotate(90)" fill="#fff"/>
      </g>
      <g id="Group_6647" data-name="Group 6647" transform="translate(-132 378)">
        <path id="Path_21110-4" data-name="Path 21110" d="M7500.11,268.085l2.016-3.151,2.016,3.151v7.435l-2.016,3.151-2.016-3.151Z" transform="translate(-6990.024 162)" fill="#fff"/>
        <path id="Path_21111-4" data-name="Path 21111" d="M0,3.151,2.017,0,4.034,3.151v7.434L2.017,13.737,0,10.585Z" transform="translate(518.97 431.785) rotate(90)" fill="#fff"/>
      </g>
      <g id="Group_6648" data-name="Group 6648" transform="translate(-66 321)">
        <path id="Path_21110-5" data-name="Path 21110" d="M7500.11,266.207l.814-1.273.814,1.273v3l-.814,1.273-.814-1.273Z" transform="translate(-6992.917 162)" fill="#fff"/>
        <path id="Path_21111-5" data-name="Path 21111" d="M0,1.273.815,0l.815,1.273v3L.815,5.548,0,4.275Z" transform="translate(510.782 428.893) rotate(90)" fill="#fff"/>
      </g>
      <g id="Group_6649" data-name="Group 6649" transform="translate(-20 335.886)">
        <path id="Path_21110-6" data-name="Path 21110" d="M7500.11,267.15l1.418-2.216,1.419,2.216v5.229l-1.419,2.216-1.418-2.216Z" transform="translate(-6991.464 162)" fill="#fff"/>
        <path id="Path_21111-6" data-name="Path 21111" d="M0,2.216,1.419,0,2.837,2.216V7.445L1.419,9.662,0,7.445Z" transform="translate(514.895 430.346) rotate(90)" fill="#fff"/>
      </g>
      <g id="Group_6650" data-name="Group 6650" transform="translate(54 321)">
        <path id="Path_21110-7" data-name="Path 21110" d="M7500.11,267.916l1.908-2.982,1.908,2.982v7.036l-1.908,2.982-1.908-2.982Z" transform="translate(-6990.285 162)" fill="#fff"/>
        <path id="Path_21111-7" data-name="Path 21111" d="M0,2.982,1.909,0,3.817,2.982v7.036L1.909,13,0,10.018Z" transform="translate(518.234 431.525) rotate(90)" fill="#fff"/>
      </g>
      <g id="Group_6651" data-name="Group 6651" transform="translate(129 307)">
        <path id="Path_21110-8" data-name="Path 21110" d="M7500.11,266.207l.814-1.273.814,1.273v3l-.814,1.273-.814-1.273Z" transform="translate(-6992.917 162)" fill="#fff"/>
        <path id="Path_21111-8" data-name="Path 21111" d="M0,1.273.815,0l.815,1.273v3L.815,5.548,0,4.275Z" transform="translate(510.782 428.893) rotate(90)" fill="#fff"/>
      </g>
      <g id="Group_6652" data-name="Group 6652" transform="translate(-69 449)">
        <path id="Path_21110-9" data-name="Path 21110" d="M7500.11,266.207l.814-1.273.814,1.273v3l-.814,1.273-.814-1.273Z" transform="translate(-6992.917 162)" fill="#fff"/>
        <path id="Path_21111-9" data-name="Path 21111" d="M0,1.273.815,0l.815,1.273v3L.815,5.548,0,4.275Z" transform="translate(510.782 428.893) rotate(90)" fill="#fff"/>
      </g>
      <g id="Group_6653" data-name="Group 6653" transform="translate(-23 428)">
        <path id="Path_21110-10" data-name="Path 21110" d="M7500.11,266.207l.814-1.273.814,1.273v3l-.814,1.273-.814-1.273Z" transform="translate(-6992.917 162)" fill="#fff"/>
        <path id="Path_21111-10" data-name="Path 21111" d="M0,1.273.815,0l.815,1.273v3L.815,5.548,0,4.275Z" transform="translate(510.782 428.893) rotate(90)" fill="#fff"/>
      </g>
      <g id="Group_6654" data-name="Group 6654" transform="translate(-57 382)">
        <path id="Path_21110-11" data-name="Path 21110" d="M7500.11,266.207l.814-1.273.814,1.273v3l-.814,1.273-.814-1.273Z" transform="translate(-6992.917 162)" fill="#fff"/>
        <path id="Path_21111-11" data-name="Path 21111" d="M0,1.273.815,0l.815,1.273v3L.815,5.548,0,4.275Z" transform="translate(510.782 428.893) rotate(90)" fill="#fff"/>
      </g>
      <g id="Group_6660" data-name="Group 6660" transform="translate(1480.095 1509.271) rotate(180)">
        <g id="Group_6655" data-name="Group 6655" transform="translate(730.669 677.934)">
          <path id="Path_21110-12" data-name="Path 21110" d="M7500.11,265.967l.662-1.033.661,1.033v2.438l-.661,1.033-.662-1.033Z" transform="translate(-7498.519 -264.934)" fill="#fff"/>
          <path id="Path_21111-12" data-name="Path 21111" d="M0,1.033.661,0l.661,1.033V3.471L.661,4.5,0,3.471Z" transform="translate(4.504 1.591) rotate(90)" fill="#fff"/>
        </g>
        <g id="Group_6656" data-name="Group 6656" transform="translate(768.017 690.02)">
          <path id="Path_21110-13" data-name="Path 21110" d="M7500.11,266.733l1.151-1.8,1.152,1.8v4.246l-1.152,1.8-1.151-1.8Z" transform="translate(-7497.34 -264.934)" fill="#fff"/>
          <path id="Path_21111-13" data-name="Path 21111" d="M0,1.8,1.152,0,2.3,1.8V6.045l-1.152,1.8L0,6.045Z" transform="translate(7.844 2.77) rotate(90)" fill="#fff"/>
        </g>
        <g id="Group_6657" data-name="Group 6657" transform="translate(728.234 781.858)">
          <path id="Path_21110-14" data-name="Path 21110" d="M7500.11,265.967l.662-1.033.661,1.033v2.438l-.661,1.033-.662-1.033Z" transform="translate(-7498.519 -264.934)" fill="#fff"/>
          <path id="Path_21111-14" data-name="Path 21111" d="M0,1.033.661,0l.661,1.033V3.471L.661,4.5,0,3.471Z" transform="translate(4.504 1.591) rotate(90)" fill="#fff"/>
        </g>
        <g id="Group_6658" data-name="Group 6658" transform="translate(765.581 764.808)">
          <path id="Path_21110-15" data-name="Path 21110" d="M7500.11,265.967l.662-1.033.661,1.033v2.438l-.661,1.033-.662-1.033Z" transform="translate(-7498.519 -264.934)" fill="#fff"/>
          <path id="Path_21111-15" data-name="Path 21111" d="M0,1.033.661,0l.661,1.033V3.471L.661,4.5,0,3.471Z" transform="translate(4.504 1.591) rotate(90)" fill="#fff"/>
        </g>
        <g id="Group_6659" data-name="Group 6659" transform="translate(737.977 727.46)">
          <path id="Path_21110-16" data-name="Path 21110" d="M7500.11,265.967l.662-1.033.661,1.033v2.438l-.661,1.033-.662-1.033Z" transform="translate(-7498.519 -264.934)" fill="#fff"/>
          <path id="Path_21111-16" data-name="Path 21111" d="M0,1.033.661,0l.661,1.033V3.471L.661,4.5,0,3.471Z" transform="translate(4.504 1.591) rotate(90)" fill="#fff"/>
        </g>
      </g>
      <g id="Group_6665" data-name="Group 6665" transform="translate(1234.129 1555.604) rotate(180)">
        <g id="Group_6661" data-name="Group 6661" transform="translate(75 329)">
          <path id="Path_21110-17" data-name="Path 21110" d="M7500.11,268.085l2.016-3.151,2.016,3.151v7.435l-2.016,3.151-2.016-3.151Z" transform="translate(-6990.024 162)" fill="#fff"/>
          <path id="Path_21111-17" data-name="Path 21111" d="M0,3.151,2.017,0,4.034,3.151v7.434L2.017,13.737,0,10.585Z" transform="translate(518.97 431.785) rotate(90)" fill="#fff"/>
        </g>
        <g id="Group_6662" data-name="Group 6662" transform="translate(141 272)">
          <path id="Path_21110-18" data-name="Path 21110" d="M7500.11,266.207l.814-1.273.814,1.273v3l-.814,1.273-.814-1.273Z" transform="translate(-6992.917 162)" fill="#fff"/>
          <path id="Path_21111-18" data-name="Path 21111" d="M0,1.273.815,0l.815,1.273v3L.815,5.548,0,4.275Z" transform="translate(510.782 428.893) rotate(90)" fill="#fff"/>
        </g>
        <g id="Group_6663" data-name="Group 6663" transform="translate(187 286.886)">
          <path id="Path_21110-19" data-name="Path 21110" d="M7500.11,267.15l1.418-2.216,1.419,2.216v5.229l-1.419,2.216-1.418-2.216Z" transform="translate(-6991.464 162)" fill="#fff"/>
          <path id="Path_21111-19" data-name="Path 21111" d="M0,2.216,1.419,0,2.837,2.216V7.445L1.419,9.662,0,7.445Z" transform="translate(514.895 430.346) rotate(90)" fill="#fff"/>
        </g>
        <g id="Group_6664" data-name="Group 6664" transform="translate(150 333)">
          <path id="Path_21110-20" data-name="Path 21110" d="M7500.11,266.207l.814-1.273.814,1.273v3l-.814,1.273-.814-1.273Z" transform="translate(-6992.917 162)" fill="#fff"/>
          <path id="Path_21111-20" data-name="Path 21111" d="M0,1.273.815,0l.815,1.273v3L.815,5.548,0,4.275Z" transform="translate(510.782 428.893) rotate(90)" fill="#fff"/>
        </g>
      </g>
      <path id="Path_20936" data-name="Path 20936" d="M10618.193,1459.627h98.971l16.746,8.906-26.595,26.595-19.743-19.744-15.641,15.639-16.406-16.407-20.512,20.511-14.5-14.5-15.612-15.612Z" transform="translate(-10411 -772)" fill="#3b579b" opacity="0.403"/>
      <path id="Path_20936-2" data-name="Path 20936" d="M10614.128,1441.428l11-11,9.7,9.7,9.7-9.7,11,11,7.057-7.056,8.563,8.564,10.019,10.018-15.721,15.721L10653.771,1457l-9.245,9.245-9.7-9.7-12.125,12.125-8.574-8.573-9.229-9.229Z" transform="translate(-10217.928 -770.293)" fill="#3b579b" opacity="0.403"/>
      <path id="Path_21113" data-name="Path 21113" d="M10615.141,1442.635l12.209-12.207,10.764,10.763,10.764-10.763,12.205,12.207,7.832-7.831,9.5,9.5,11.117,11.118-17.447,17.447-12.951-12.952-10.26,10.26-10.764-10.764-13.457,13.456-9.516-9.514-10.242-10.242Z" transform="translate(-10494 -690.946)" fill="#3b579b" opacity="0.403"/>
      <path id="Path_21114" data-name="Path 21114" d="M10627.366,1459.627h167.259l28.3,14.983-44.943,44.743-33.366-33.217-26.432,26.312-27.727-27.6-34.665,34.509-24.51-24.4-26.385-26.265Z" transform="translate(-10196.982 -888.727)" fill="#3b579b" opacity="0.403"/>
      <path id="Path_21115" data-name="Path 21115" d="M10615.141,1442.635l12.209-12.207,10.764,10.763,10.764-10.763,12.205,12.207,7.832-7.831,9.5,9.5,11.117,11.118-17.447,17.447-12.951-12.952-10.26,10.26-10.764-10.764-13.457,13.456-9.516-9.514-10.242-10.242Z" transform="translate(-9943 -767.946)" fill="#3b579b" opacity="0.403"/>
      <path id="Path_21116" data-name="Path 21116" d="M7073.868,872.7l-34.381,45.412h-72.854V872.7Z" transform="translate(-7016 162)" fill="#5aad8b"/>
      <g id="Group_6515" data-name="Group 6515" transform="translate(-42 830)">
        <circle id="Ellipse_313" data-name="Ellipse 313" cx="66.5" cy="66.5" r="66.5" transform="translate(0)" fill="#648ae0"/>
        <circle id="Ellipse_312" data-name="Ellipse 312" cx="61" cy="61" r="61" transform="translate(6 6)" fill="#5273c0"/>
      </g>
      <g id="Setor_Tabungan" data-name="Setor Tabungan" transform="translate(-8.775 876.353)">
        <path id="Path_16057" data-name="Path 16057" d="M199.7,454.217a1.967,1.967,0,0,1-1.966,1.966H186.021l.241.22a1.967,1.967,0,0,1-2.655,2.9l-3.976-3.638a1.968,1.968,0,0,1,1.327-3.417h16.779A1.967,1.967,0,0,1,199.7,454.217Z" transform="translate(-155.527 -405.223)" fill="#fff"/>
        <path id="Path_16058" data-name="Path 16058" d="M265.75,454.217a1.967,1.967,0,0,1-1.966,1.966H255v-3.933h8.783A1.967,1.967,0,0,1,265.75,454.217Z" transform="translate(-221.573 -405.223)" fill="#fff"/>
        <path id="Path_16059" data-name="Path 16059" d="M66.856,95.467v38.409a1.967,1.967,0,0,1-1.966,1.966H1.967A1.967,1.967,0,0,1,0,133.876V95.467A1.967,1.967,0,0,1,1.967,93.5H64.89A1.967,1.967,0,0,1,66.856,95.467Z" transform="translate(-0.001 -93.501)" fill="#f8f8f8" stroke="#fff" stroke-width="1"/>
        <path id="Path_16060" data-name="Path 16060" d="M286.162,95.276v34.679a1.806,1.806,0,0,1-1.833,1.775H255V93.5h29.328A1.806,1.806,0,0,1,286.162,95.276Z" transform="translate(-221.573 -91.553)" fill="#f8f8f8"/>
        <path id="Path_16061" data-name="Path 16061" d="M88.991,133.189V150.67a1.313,1.313,0,0,1-1.113,1.3,7.111,7.111,0,0,0-5.911,5.909,1.312,1.312,0,0,1-1.3,1.113H38.32a1.312,1.312,0,0,1-1.3-1.113,7.11,7.11,0,0,0-5.911-5.909A1.313,1.313,0,0,1,30,150.67V133.189a1.313,1.313,0,0,1,1.113-1.3,7.11,7.11,0,0,0,5.911-5.909,1.312,1.312,0,0,1,1.3-1.113H80.672a1.312,1.312,0,0,1,1.3,1.113,7.11,7.11,0,0,0,5.911,5.909A1.313,1.313,0,0,1,88.991,133.189Z" transform="translate(-26.068 -120.759)" fill="#e8e8e8"/>
        <path id="Path_16062" data-name="Path 16062" d="M284.5,133.189V150.67a1.313,1.313,0,0,1-1.113,1.3,7.111,7.111,0,0,0-5.911,5.909,1.312,1.312,0,0,1-1.3,1.113H255V124.871h21.176a1.312,1.312,0,0,1,1.3,1.113,7.11,7.11,0,0,0,5.911,5.909A1.313,1.313,0,0,1,284.5,133.189Z" transform="translate(-221.573 -120.759)" fill="#e8e8e8"/>
        <path id="Path_16063" data-name="Path 16063" d="M106.467,225a1.966,1.966,0,0,0-1.966,1.966V230.9a1.966,1.966,0,1,0,3.933,0v-3.933A1.966,1.966,0,0,0,106.467,225Z" transform="translate(-90.802 -207.763)" fill="#fff"/>
        <path id="Path_16065" data-name="Path 16065" d="M205.039,197.5a7.538,7.538,0,1,0,7.538,7.538A7.545,7.545,0,0,0,205.039,197.5Zm0,11.143a3.6,3.6,0,1,1,3.6-3.6A3.61,3.61,0,0,1,205.039,208.644Z" transform="translate(-171.611 -183.868)" fill="#fff"/>
        <path id="Path_16066" data-name="Path 16066" d="M262.539,205.039A7.545,7.545,0,0,1,255,212.576v-3.933a3.6,3.6,0,1,0,0-7.21V197.5A7.545,7.545,0,0,1,262.539,205.039Z" transform="translate(-221.573 -183.868)" fill="#f8f8f8"/>
      </g>
      <g id="Group_6641" data-name="Group 6641" transform="translate(248.868 675.497)">
        <g id="Group_6622" data-name="Group 6622" transform="translate(0 0)">
          <line id="Line_2" data-name="Line 2" x1="1.282" y1="13.355" transform="translate(150.967)" fill="#386167"/>
          <path id="Path_21076" data-name="Path 21076" d="M639.267,305.385l31.813,14.839-102.326,92.99H556.42l-23.179,16.019L423.326,431.47,297.494,413.953,239.71,355.938l243.6-63.181h15.465Z" transform="translate(-162.776 -130.529)" fill="#e81c27"/>
          <path id="Path_21077" data-name="Path 21077" d="M509.118,360.606l-3.39-1.612-27.279,2.73L233,431.3l-31.044.954-20.384-20.191L243.744,383.7l280.31-79.94,30.912,14.815Z" transform="translate(-47.245 -128.853)" fill="#cb0e18"/>
          <path id="Path_21078" data-name="Path 21078" d="M467.429,310.687,357.892,341.031l-101.008-13.4,101.008-28.318Z" transform="translate(-42.793 -129.531)" fill="#fff"/>
          <path id="Path_21079" data-name="Path 21079" d="M427.762,341.045l-26.48-3.867L374.6,345.423l26.684,5.014Z" transform="translate(-138.768 -123.763)" fill="#fff"/>
          <path id="Path_21080" data-name="Path 21080" d="M459.1,337.006l-26.8,9.3-26.161-4.342,27.034-8.586Z" transform="translate(-206.452 -124.341)" fill="#fff"/>
          <path id="Path_21081" data-name="Path 21081" d="M490.619,332.332l-26.539,9.181L437.272,337.4l26.807-9.035Z" transform="translate(-273.846 -125.106)" fill="#fff"/>
          <path id="Path_21082" data-name="Path 21082" d="M470.544,351.632l-27.219,8.9-26.336-3.944,26.336-9.064Z" transform="translate(-230.399 -122.187)" fill="#fff"/>
          <path id="Path_21083" data-name="Path 21083" d="M502.012,348.1l-26.44,8.554-26.848-4.2,26.848-8.684Z" transform="translate(-298.436 -122.759)" fill="#fff"/>
          <path id="Path_21084" data-name="Path 21084" d="M532.545,342.583,506.595,338.7l-26.751,8.884,26.751,4.458Z" transform="translate(-364.828 -123.531)" fill="#fff"/>
          <path id="Path_21085" data-name="Path 21085" d="M512.535,362.112l-26.922-3.7L459.4,367.2l26.208,4.7Z" transform="translate(-321.265 -120.529)" fill="#fff"/>
          <path id="Path_21086" data-name="Path 21086" d="M544.162,358.325l-26.454-4.163-26.6,8.984,26.6,4.559Z" transform="translate(-389.43 -121.176)" fill="#fff"/>
          <path id="Path_21087" data-name="Path 21087" d="M575.047,353.34l-27.074-3.974-10.007,3.415,10.007,10.633Z" transform="translate(-455.799 -121.907)" fill="#fff"/>
          <path id="Path_21088" data-name="Path 21088" d="M288.1,331.751,181.345,319.26l8.568-34.033,62.15-47.541,2.527-35.374-68.914-3.227V182.527l29.511-29.952L320.253,159.3,357.3,188.231v55.8l-63.9,60.364Z" transform="translate(154.386 -151.881)" fill="#fff"/>
          <path id="Path_21089" data-name="Path 21089" d="M348.252,159.288,321.562,173.5l-8.351,33.486-31.83-3-67.845-4.97V182.642l29.706-30.06Z" transform="translate(126.335 -151.88)" fill="#fdefef"/>
          <path id="Path_21103" data-name="Path 21103" d="M372.59,310.328,261.946,340.869,256,300.708l5.964-1.617Z" transform="translate(53.166 -129.311)" fill="#f06969" opacity="0.141"/>
          <path id="Path_21104" data-name="Path 21104" d="M360.447,339.115l-9.819-1.33-3.784-35.321,8.47-2.342Z" transform="translate(-48.59 -128.002)" fill="#f06969" opacity="0.05"/>
        </g>
        <path id="Path_21090" data-name="Path 21090" d="M15656.58,104.495l-20.762,16.306-13.484,38.282-94.949-14.582,91.629,4.728L15629.6,118.3Z" transform="translate(-15181.968 -97.095)" fill="#fccaca"/>
      </g>
      <line id="Line_3" data-name="Line 3" y2="60" transform="translate(375.5 570.9)" fill="none" stroke="#a89f31" stroke-width="2"/>
      <line id="Line_4" data-name="Line 4" y2="14" transform="translate(415.5 570.9)" fill="none" stroke="#a89f31" stroke-width="2"/>
      <path id="Path_21165" data-name="Path 21165" d="M7263.132,729.251v41.321L7192.8,845.451H6965.049v27.567l235.783,2.292,96.216-95.483-6.054-41.915-8.975-8.661Z" transform="translate(-6966 162)" fill="#f4b100"/>
      <line id="Line_5" data-name="Line 5" y2="57" transform="translate(489.5 570.9)" fill="none" stroke="#a89f31" stroke-width="2"/>
      <g id="Group_6676" data-name="Group 6676" transform="translate(-1019 -590)">
        <circle id="Ellipse_313-2" data-name="Ellipse 313" cx="40.5" cy="40.5" r="40.5" transform="translate(1199 1569)" fill="#648ae0"/>
        <circle id="Ellipse_312-2" data-name="Ellipse 312" cx="37.5" cy="37.5" r="37.5" transform="translate(1202 1572)" fill="#5273c0"/>
        <g id="lightning" transform="translate(1227.038 1589.709)">
          <path id="Path_16145" data-name="Path 16145" d="M122.832,57.763l13.889-23.914a.752.752,0,0,0-.752-1.123l-9.238,1.256,2.207-11.588a.376.376,0,0,0-.669-.3L114.613,40.121a.752.752,0,0,0,.678,1.2l10.185-1.072L122.138,57.5A.376.376,0,0,0,122.832,57.763Z" transform="translate(-112.978 -20.228)" fill="#fff"/>
          <path id="Path_16146" data-name="Path 16146" d="M118.883,38.858a.311.311,0,0,1-.289-.475L128.8,22.047a.371.371,0,0,0-.536.063L114.613,40.136a.752.752,0,0,0,.678,1.2l10.185-1.072-3.339,17.252a.366.366,0,0,0,.3.436l5.722-18.105a1.254,1.254,0,0,0-1.3-1.628Z" transform="translate(-112.978 -20.243)" fill="#fff"/>
          <path id="Path_16147" data-name="Path 16147" d="M216.588,78.466a.587.587,0,0,0-.566-.255l-9.955,1.353,1.281-6.723a.587.587,0,1,0-1.152-.22l-1.433,7.524a.587.587,0,0,0,.655.691l9.574-1.3-13.434,23.131L203.932,90.4a.587.587,0,1,0-1.152-.223l-3.034,15.674a.587.587,0,0,0,1.083.406l15.779-27.169A.586.586,0,0,0,216.588,78.466Z" transform="translate(-191.585 -66.503)" fill="#fff"/>
          <path id="Path_16148" data-name="Path 16148" d="M107.207,21.165a.587.587,0,1,0,1.152.223l.243-1.254a.587.587,0,0,0-.637-.695L97.4,20.551,110.742,2.937l-.128.674a.587.587,0,0,0,1.152.22l.6-3.135A.587.587,0,0,0,111.32.232L95.646,20.922a.587.587,0,0,0,.529.938L107.3,20.689Z" transform="translate(-95.527 0)" fill="#fff"/>
        </g>
      </g>
      <g id="Group_6396" data-name="Group 6396" transform="translate(409.443 834.394) rotate(180)">
        <g id="Group_6359" data-name="Group 6359" transform="translate(0 0)">
          <g id="Group_6353" data-name="Group 6353" transform="translate(4.135)">
            <g id="Group_6324" data-name="Group 6324" transform="translate(0)">
              <path id="Path_20817" data-name="Path 20817" d="M0,27.189,75.95,42.914l2.775-13.4h0c1.069-5.16-1.57-11.088-8.169-16.56C57.356,2,33.312-2.973,16.851,1.83,8.62,4.231,3.844,8.624,2.776,13.785h0Z" transform="translate(0 0)" fill="#ce9b11"/>
            </g>
            <g id="Group_6352" data-name="Group 6352" transform="translate(1.751 0.005)">
              <g id="Group_6325" data-name="Group 6325" transform="translate(0 7.847)">
                <path id="Path_20818" data-name="Path 20818" d="M3.587.754C3.8.5,4.022.247,4.257,0c-.166.685-.324,1.374-.5,2.06-.351,1.409-.7,2.821-.955,4.25-.284,1.422-.463,2.869-.713,4.3A85.8,85.8,0,0,1,.07,19.086L0,19.07a85.782,85.782,0,0,1,1.511-8.582c.338-1.412.747-2.809,1.052-4.229.329-1.414.574-2.845.812-4.279C3.441,1.57,3.518,1.162,3.587.754Z" transform="translate(0)" fill="#dcd9ff"/>
              </g>
              <g id="Group_6326" data-name="Group 6326" transform="translate(2.793 4.965)">
                <path id="Path_20819" data-name="Path 20819" d="M4.238.536C4.5.353,4.78.175,5.061,0c-.408,1.844-.836,3.686-1.3,5.52-.351,1.41-.7,2.821-.955,4.25-.284,1.424-.463,2.869-.713,4.3A85.668,85.668,0,0,1,.07,22.546L0,22.532A86.142,86.142,0,0,1,1.51,13.95c.339-1.412.749-2.811,1.052-4.23.331-1.414.576-2.847.812-4.279C3.64,3.8,3.931,2.166,4.238.536Z" transform="translate(0)" fill="#dcd9ff"/>
              </g>
              <g id="Group_6327" data-name="Group 6327" transform="translate(5.587 3.249)">
                <path id="Path_20820" data-name="Path 20820" d="M4.723.38C5,.252,5.271.123,5.556,0q-.81,3.925-1.8,7.815c-.351,1.409-.7,2.821-.955,4.25-.284,1.422-.463,2.869-.713,4.3A85.784,85.784,0,0,1,.07,24.841L0,24.825a85.753,85.753,0,0,1,1.51-8.582c.339-1.412.749-2.809,1.052-4.229.331-1.414.576-2.845.812-4.279Q3.973,4.043,4.723.38Z" fill="#dcd9ff"/>
              </g>
              <g id="Group_6328" data-name="Group 6328" transform="translate(8.38 2.084)">
                <path id="Path_20821" data-name="Path 20821" d="M2.805,13.808c-.285,1.424-.463,2.869-.713,4.3A85.661,85.661,0,0,1,.07,26.583L0,26.57a85.6,85.6,0,0,1,1.51-8.582c.339-1.412.749-2.811,1.052-4.229.331-1.414.576-2.847.812-4.279.5-3.092,1.074-6.169,1.741-9.227C5.371.163,5.637.082,5.9,0Q4.97,4.807,3.76,9.557C3.409,10.968,3.064,12.378,2.805,13.808Z" fill="#dcd9ff"/>
              </g>
              <g id="Group_6329" data-name="Group 6329" transform="translate(11.174 1.272)">
                <path id="Path_20822" data-name="Path 20822" d="M3.758,10.949c-.35,1.409-.694,2.821-.953,4.25-.284,1.422-.463,2.869-.713,4.3A86.273,86.273,0,0,1,.07,27.975L0,27.96a85.761,85.761,0,0,1,1.51-8.582c.339-1.412.749-2.809,1.052-4.23.331-1.414.576-2.845.812-4.279C3.955,7.282,4.639,3.715,5.451.175c.235-.058.468-.12.7-.175C5.486,3.676,4.677,7.323,3.758,10.949Z" fill="#dcd9ff"/>
              </g>
              <g id="Group_6330" data-name="Group 6330" transform="translate(13.967 0.687)">
                <path id="Path_20823" data-name="Path 20823" d="M3.758,12.111c-.35,1.41-.694,2.821-.953,4.25-.284,1.424-.464,2.869-.715,4.3A85.674,85.674,0,0,1,.07,29.137L0,29.123a85.6,85.6,0,0,1,1.51-8.582c.339-1.412.749-2.811,1.052-4.23.331-1.414.576-2.847.812-4.279.648-4,1.416-7.983,2.36-11.924C5.945.072,6.157.034,6.372,0,5.667,4.072,4.773,8.1,3.758,12.111Z" fill="#dcd9ff"/>
              </g>
              <g id="Group_6331" data-name="Group 6331" transform="translate(16.76 0.304)">
                <path id="Path_20824" data-name="Path 20824" d="M3.758,13.074c-.35,1.409-.694,2.821-.953,4.248-.284,1.424-.464,2.87-.715,4.3A85.71,85.71,0,0,1,.07,30.1L0,30.085A85.666,85.666,0,0,1,1.51,21.5c.339-1.412.749-2.809,1.052-4.23.331-1.414.576-2.847.812-4.279.7-4.346,1.535-8.665,2.6-12.937C6.159.036,6.349.019,6.538,0,5.813,4.4,4.853,8.75,3.758,13.074Z" fill="#dcd9ff"/>
              </g>
              <g id="Group_6332" data-name="Group 6332" transform="translate(19.554 0.086)">
                <path id="Path_20825" data-name="Path 20825" d="M3.758,13.869c-.351,1.41-.694,2.821-.953,4.25-.284,1.424-.464,2.869-.715,4.3A85.671,85.671,0,0,1,.07,30.9L0,30.882A85.566,85.566,0,0,1,1.51,22.3c.339-1.412.749-2.811,1.052-4.23.331-1.416.576-2.846.812-4.279C4.125,9.16,5.032,4.562,6.2.017,6.348.008,6.5.007,6.656,0,5.918,4.67,4.918,9.287,3.758,13.869Z" fill="#dcd9ff"/>
              </g>
              <g id="Group_6333" data-name="Group 6333" transform="translate(22.347 0)">
                <path id="Path_20826" data-name="Path 20826" d="M3.758,14.533c-.351,1.41-.694,2.822-.953,4.252-.284,1.422-.464,2.869-.715,4.3A85.756,85.756,0,0,1,.07,31.56L0,31.545a85.761,85.761,0,0,1,1.51-8.582c.339-1.412.749-2.811,1.052-4.23.331-1.414.576-2.845.812-4.279C4.161,9.592,5.126,4.766,6.377,0c.125,0,.252.007.377.007C6.008,4.9,4.973,9.736,3.758,14.533Z" transform="translate(0 0)" fill="#dcd9ff"/>
              </g>
              <g id="Group_6334" data-name="Group 6334" transform="translate(25.141 0.06)">
                <path id="Path_20827" data-name="Path 20827" d="M3.758,15.052c-.351,1.41-.694,2.821-.953,4.25-.285,1.424-.464,2.869-.715,4.3A85.674,85.674,0,0,1,.07,32.078L0,32.064a85.581,85.581,0,0,1,1.51-8.582c.339-1.412.749-2.811,1.052-4.23.331-1.416.574-2.847.812-4.279A151.592,151.592,0,0,1,6.516,0c.1,0,.209,0,.314.007A150.852,150.852,0,0,1,3.758,15.052Z" fill="#dcd9ff"/>
              </g>
              <g id="Group_6335" data-name="Group 6335" transform="translate(27.934 0.249)">
                <path id="Path_20828" data-name="Path 20828" d="M3.758,15.443c-.351,1.409-.694,2.821-.953,4.25-.285,1.422-.464,2.869-.715,4.3A85.689,85.689,0,0,1,.07,32.469L0,32.453a85.678,85.678,0,0,1,1.51-8.582c.339-1.412.749-2.811,1.052-4.229.331-1.414.574-2.846.812-4.279A150.668,150.668,0,0,1,6.618,0c.089.007.178.012.267.021A150.3,150.3,0,0,1,3.758,15.443Z" fill="#dcd9ff"/>
              </g>
              <g id="Group_6336" data-name="Group 6336" transform="translate(30.727 0.549)">
                <path id="Path_20829" data-name="Path 20829" d="M3.758,15.72c-.351,1.41-.7,2.821-.953,4.25-.284,1.424-.464,2.869-.715,4.3A86.145,86.145,0,0,1,.07,32.746L0,32.731A85.656,85.656,0,0,1,1.51,24.15c.338-1.414.747-2.81,1.052-4.23.331-1.416.574-2.847.812-4.281A149.059,149.059,0,0,1,6.694,0l.231.029A149.354,149.354,0,0,1,3.758,15.72Z" fill="#dcd9ff"/>
              </g>
              <g id="Group_6337" data-name="Group 6337" transform="translate(33.521 0.953)">
                <path id="Path_20830" data-name="Path 20830" d="M3.758,15.893c-.351,1.41-.7,2.822-.953,4.25-.284,1.424-.464,2.871-.715,4.3A86.032,86.032,0,0,1,.07,32.919L0,32.906a85.694,85.694,0,0,1,1.51-8.582c.338-1.412.747-2.81,1.052-4.229.331-1.414.574-2.847.812-4.279A148.7,148.7,0,0,1,6.74,0c.07.01.141.026.211.038A148.809,148.809,0,0,1,3.758,15.893Z" fill="#dcd9ff"/>
              </g>
              <g id="Group_6338" data-name="Group 6338" transform="translate(36.314 1.46)">
                <path id="Path_20831" data-name="Path 20831" d="M6.96.043a148.341,148.341,0,0,1-3.2,15.922c-.351,1.41-.7,2.821-.953,4.25-.285,1.424-.464,2.869-.715,4.3A85.791,85.791,0,0,1,.069,32.991L0,32.978A85.572,85.572,0,0,1,1.51,24.4c.338-1.412.747-2.811,1.052-4.229.331-1.416.574-2.847.812-4.281A148.4,148.4,0,0,1,6.759,0C6.826.014,6.893.027,6.96.043Z" fill="#dcd9ff"/>
              </g>
              <g id="Group_6339" data-name="Group 6339" transform="translate(39.106 2.103)">
                <path id="Path_20832" data-name="Path 20832" d="M3.76,15.9c-.351,1.41-.7,2.821-.953,4.25-.284,1.424-.464,2.869-.715,4.3A85.574,85.574,0,0,1,.07,32.926L0,32.912A86.159,86.159,0,0,1,1.511,24.33c.338-1.412.747-2.81,1.052-4.23.331-1.414.574-2.846.812-4.279A149.006,149.006,0,0,1,6.742,0l.209.05A149.109,149.109,0,0,1,3.76,15.9Z" fill="#dcd9ff"/>
              </g>
              <g id="Group_6340" data-name="Group 6340" transform="translate(41.899 2.845)">
                <path id="Path_20833" data-name="Path 20833" d="M3.76,15.737c-.351,1.41-.7,2.821-.955,4.25-.284,1.424-.463,2.869-.713,4.3A85.664,85.664,0,0,1,.07,32.763L0,32.748a86.154,86.154,0,0,1,1.511-8.581c.338-1.414.747-2.81,1.052-4.231.329-1.414.574-2.845.812-4.279A149.269,149.269,0,0,1,6.7,0l.224.065A149.083,149.083,0,0,1,3.76,15.737Z" transform="translate(0)" fill="#dcd9ff"/>
              </g>
              <g id="Group_6341" data-name="Group 6341" transform="translate(44.693 3.686)">
                <path id="Path_20834" data-name="Path 20834" d="M3.76,15.473c-.351,1.41-.7,2.822-.955,4.25-.284,1.424-.463,2.87-.713,4.3A85.557,85.557,0,0,1,.07,32.5L0,32.486A85.674,85.674,0,0,1,1.511,23.9c.338-1.412.747-2.81,1.052-4.229.329-1.414.574-2.847.812-4.279A150.263,150.263,0,0,1,6.629,0c.086.027.168.058.254.087A150.512,150.512,0,0,1,3.76,15.473Z" transform="translate(0)" fill="#dcd9ff"/>
              </g>
              <g id="Group_6342" data-name="Group 6342" transform="translate(47.486 4.631)">
                <path id="Path_20835" data-name="Path 20835" d="M3.76,15.108c-.351,1.41-.7,2.821-.955,4.25-.284,1.422-.463,2.869-.713,4.3A85.8,85.8,0,0,1,.07,32.134L0,32.119a85.648,85.648,0,0,1,1.511-8.581c.338-1.414.747-2.811,1.052-4.23.329-1.416.574-2.846.812-4.281A151.371,151.371,0,0,1,6.531,0c.1.038.194.081.291.12A152.3,152.3,0,0,1,3.76,15.108Z" transform="translate(0)" fill="#dcd9ff"/>
              </g>
              <g id="Group_6343" data-name="Group 6343" transform="translate(50.279 5.717)">
                <path id="Path_20836" data-name="Path 20836" d="M3.76,14.6c-.351,1.41-.7,2.821-.954,4.25-.285,1.424-.463,2.869-.713,4.3A85.551,85.551,0,0,1,.07,31.625L0,31.612a85.705,85.705,0,0,1,1.512-8.582c.338-1.412.747-2.811,1.052-4.23.329-1.414.574-2.846.812-4.279C4.166,9.635,5.136,4.788,6.4,0c.115.048.235.091.348.142C6,5.013,4.968,9.825,3.76,14.6Z" transform="translate(0)" fill="#dcd9ff"/>
              </g>
              <g id="Group_6344" data-name="Group 6344" transform="translate(53.073 6.936)">
                <path id="Path_20837" data-name="Path 20837" d="M3.76,13.96c-.351,1.409-.7,2.821-.955,4.25-.284,1.424-.463,2.869-.713,4.3A85.785,85.785,0,0,1,.07,30.986L0,30.971A85.639,85.639,0,0,1,1.512,22.39c.338-1.414.747-2.81,1.052-4.231.329-1.414.574-2.845.812-4.279C4.13,9.213,5.047,4.581,6.224,0c.137.069.279.13.416.2C5.9,4.833,4.91,9.412,3.76,13.96Z" transform="translate(0)" fill="#dcd9ff"/>
              </g>
              <g id="Group_6345" data-name="Group 6345" transform="translate(55.866 8.293)">
                <path id="Path_20838" data-name="Path 20838" d="M3.76,13.18c-.351,1.41-.7,2.821-.955,4.25-.284,1.424-.463,2.869-.713,4.3A85.68,85.68,0,0,1,.07,30.206L0,30.193A85.682,85.682,0,0,1,1.511,21.61c.338-1.412.747-2.811,1.051-4.229.331-1.414.576-2.847.814-4.279C4.087,8.7,4.936,4.326,6.015,0c.166.093.334.183.5.276C5.791,4.619,4.84,8.913,3.76,13.18Z" transform="translate(0)" fill="#dcd9ff"/>
              </g>
              <g id="Group_6346" data-name="Group 6346" transform="translate(58.66 9.82)">
                <path id="Path_20839" data-name="Path 20839" d="M3.76,12.233c-.351,1.409-.7,2.821-.955,4.25-.284,1.422-.463,2.869-.713,4.3A85.79,85.79,0,0,1,.07,29.259L0,29.243a86.236,86.236,0,0,1,1.51-8.582c.339-1.412.749-2.809,1.052-4.23.331-1.414.576-2.845.814-4.279C4.036,8.072,4.817,4.017,5.787,0c.182.116.362.235.542.351C5.63,4.344,4.754,8.3,3.76,12.233Z" transform="translate(0)" fill="#dcd9ff"/>
              </g>
              <g id="Group_6347" data-name="Group 6347" transform="translate(61.453 11.551)">
                <path id="Path_20840" data-name="Path 20840" d="M2.805,15.329c-.284,1.424-.463,2.869-.713,4.3A85.6,85.6,0,0,1,.07,28.105L0,28.092a85.582,85.582,0,0,1,1.51-8.583c.339-1.412.749-2.81,1.052-4.229.331-1.414.576-2.847.812-4.279.6-3.691,1.3-7.36,2.147-11,.2.144.386.293.578.44C5.439,4.012,4.651,7.556,3.76,11.079,3.409,12.49,3.064,13.9,2.805,15.329Z" transform="translate(0)" fill="#dcd9ff"/>
              </g>
              <g id="Group_6348" data-name="Group 6348" transform="translate(64.247 13.506)">
                <path id="Path_20841" data-name="Path 20841" d="M3.76,9.7c-.351,1.409-.7,2.821-.955,4.25-.284,1.422-.463,2.869-.713,4.3A85.778,85.778,0,0,1,.07,26.729L0,26.714a85.765,85.765,0,0,1,1.51-8.582c.339-1.412.749-2.809,1.052-4.23.331-1.414.576-2.845.812-4.279Q4.158,4.785,5.206,0c.207.182.42.362.619.543C5.223,3.614,4.528,6.666,3.76,9.7Z" transform="translate(0)" fill="#dcd9ff"/>
              </g>
              <g id="Group_6349" data-name="Group 6349" transform="translate(67.04 15.821)">
                <path id="Path_20842" data-name="Path 20842" d="M4.829,0c.211.226.413.454.612.68Q4.675,4.338,3.76,7.966c-.351,1.41-.7,2.821-.954,4.25-.285,1.424-.463,2.869-.713,4.3A85.664,85.664,0,0,1,.07,24.992L0,24.978A85.688,85.688,0,0,1,1.51,16.4c.339-1.412.749-2.811,1.052-4.23.331-1.414.576-2.846.812-4.279Q4.017,3.925,4.829,0Z" transform="translate(0)" fill="#dcd9ff"/>
              </g>
              <g id="Group_6350" data-name="Group 6350" transform="translate(69.833 18.702)">
                <path id="Path_20843" data-name="Path 20843" d="M4.372,0q.285.409.543.819c-.367,1.619-.749,3.234-1.157,4.845-.35,1.409-.694,2.821-.953,4.25-.285,1.422-.464,2.869-.715,4.3A85.781,85.781,0,0,1,.07,22.69L0,22.675a85.761,85.761,0,0,1,1.51-8.582c.339-1.412.749-2.809,1.052-4.23.331-1.414.576-2.845.812-4.279C3.678,3.717,4.015,1.856,4.372,0Z" transform="translate(0)" fill="#dcd9ff"/>
              </g>
              <g id="Group_6351" data-name="Group 6351" transform="translate(72.627 22.778)">
                <path id="Path_20844" data-name="Path 20844" d="M.07,19.192,0,19.178A85.594,85.594,0,0,1,1.51,10.6c.339-1.412.749-2.811,1.052-4.23.331-1.414.576-2.847.812-4.279C3.487,1.39,3.616.7,3.736,0c.117.319.223.639.315.956-.1.4-.19.807-.293,1.21-.35,1.41-.694,2.821-.953,4.25-.284,1.424-.464,2.869-.715,4.3A85.654,85.654,0,0,1,.07,19.192Z" transform="translate(0)" fill="#dcd9ff"/>
              </g>
            </g>
          </g>
          <g id="Group_6358" data-name="Group 6358" transform="translate(0 6.842)">
            <g id="Group_6354" data-name="Group 6354" transform="translate(0 0)">
              <path id="Path_20922" data-name="Path 20922" d="M38.78,41.181c21.417,0,38.78-9.219,38.78-20.591S60.2,0,38.78,0,0,9.219,0,20.591,17.362,41.181,38.78,41.181Z" transform="translate(8.349 0) rotate(11.697)" fill="#ffbe10"/>
            </g>
            <g id="Group_6355" data-name="Group 6355" transform="translate(8.105 9.589)">
              <path id="Path_20845" data-name="Path 20845" d="M25.132,0A44.3,44.3,0,0,0,12.841,1.608C5.71,3.688,1.227,7.525.214,12.411S1.8,22.6,7.515,27.341c11.617,9.629,32.852,14.029,47.344,9.8,7.131-2.082,11.616-5.918,12.625-10.8s-1.58-10.188-7.3-14.93C51.568,4.266,37.654,0,25.132,0Zm17.4,37.8c-12.293,0-25.948-4.185-34.407-11.2C2.69,22.1.214,17.127,1.15,12.6S6.334,4.5,13.108,2.524c14.219-4.149,35.065.166,46.468,9.623h0c5.433,4.505,7.909,9.475,6.972,14s-5.182,8.1-11.959,10.078A43.4,43.4,0,0,1,42.53,37.8Z" transform="translate(0)" fill="#dea610"/>
            </g>
          </g>
        </g>
        <g id="Group_6395" data-name="Group 6395" transform="translate(67.148 48.824)">
          <g id="Group_6389" data-name="Group 6389" transform="translate(1.675 0)">
            <g id="Group_6360" data-name="Group 6360" transform="translate(0)">
              <path id="Path_20847" data-name="Path 20847" d="M4.952,48.452,78.461,23.716,74.095,10.743h0c-1.679-5-6.949-8.783-15.408-10.178C41.768-2.227,18.5,5.6,6.707,18.057.813,24.281-1.1,30.483.585,35.479h0Z" transform="translate(0 0)" fill="#ce9b11"/>
            </g>
            <g id="Group_6388" data-name="Group 6388" transform="translate(0.186 0.028)">
              <g id="Group_6361" data-name="Group 6361" transform="translate(0 28.697)">
                <path id="Path_20848" data-name="Path 20848" d="M0,.989Q.08.5.2,0C.4.677.612,1.35.807,2.031c.408,1.393.823,2.787,1.321,4.149C2.6,7.554,3.176,8.891,3.681,10.253a85.478,85.478,0,0,1,2.529,8.339l-.067.022a86.089,86.089,0,0,1-3.026-8.171C2.7,9.052,2.346,7.638,1.892,6.26,1.465,4.872.953,3.513.435,2.154.286,1.769.147,1.378,0,.989Z" transform="translate(0)" fill="#5e51b8"/>
              </g>
              <g id="Group_6362" data-name="Group 6362" transform="translate(1.409 24.394)">
                <path id="Path_20849" data-name="Path 20849" d="M0,.877C.137.586.286.293.44,0,1.018,1.8,1.578,3.606,2.1,5.424c.408,1.393.823,2.787,1.32,4.151.473,1.373,1.047,2.711,1.553,4.072a85.972,85.972,0,0,1,2.531,8.339l-.069.022a85.656,85.656,0,0,1-3.025-8.171c-.42-1.392-.771-2.8-1.225-4.183-.428-1.388-.939-2.747-1.457-4.1Q.834,3.223,0,.877Z" transform="translate(0)" fill="#5e51b8"/>
              </g>
              <g id="Group_6363" data-name="Group 6363" transform="translate(3.297 21.254)">
                <path id="Path_20850" data-name="Path 20850" d="M0,.749C.17.5.343.25.526,0Q1.809,3.8,2.917,7.654c.408,1.393.823,2.787,1.321,4.151.473,1.373,1.047,2.711,1.553,4.072a85.962,85.962,0,0,1,2.531,8.339l-.069.022a85.451,85.451,0,0,1-3.025-8.171c-.422-1.39-.773-2.8-1.225-4.183-.428-1.388-.941-2.747-1.458-4.1Q1.2,4.288,0,.749Z" transform="translate(0)" fill="#5e51b8"/>
              </g>
              <g id="Group_6364" data-name="Group 6364" transform="translate(5.393 18.664)">
                <path id="Path_20851" data-name="Path 20851" d="M4.845,13.484c.473,1.373,1.047,2.711,1.553,4.072a85.508,85.508,0,0,1,2.531,8.339l-.069.022a85.934,85.934,0,0,1-3.025-8.171c-.42-1.39-.771-2.8-1.225-4.183-.428-1.388-.939-2.747-1.457-4.1Q1.462,5.075,0,.613C.176.41.367.2.55,0Q2.175,4.619,3.525,9.333C3.933,10.728,4.348,12.12,4.845,13.484Z" transform="translate(0)" fill="#5e51b8"/>
              </g>
              <g id="Group_6365" data-name="Group 6365" transform="translate(7.648 16.425)">
                <path id="Path_20852" data-name="Path 20852" d="M3.972,10.663c.408,1.4.824,2.787,1.321,4.151.473,1.373,1.047,2.711,1.553,4.072a85.985,85.985,0,0,1,2.531,8.339l-.069.024a85.5,85.5,0,0,1-3.025-8.173c-.42-1.39-.773-2.8-1.225-4.183-.428-1.386-.939-2.747-1.458-4.1C2.293,7.4,1.085,3.972,0,.506.173.338.343.168.519,0,1.794,3.513,2.936,7.071,3.972,10.663Z" transform="translate(0)" fill="#5e51b8"/>
              </g>
              <g id="Group_6366" data-name="Group 6366" transform="translate(9.976 14.402)">
                <path id="Path_20853" data-name="Path 20853" d="M4.349,11.775c.408,1.395.823,2.786,1.321,4.151C6.142,17.3,6.718,18.637,7.223,20a85.427,85.427,0,0,1,2.529,8.337l-.067.024A85.963,85.963,0,0,1,6.66,20.188c-.42-1.39-.771-2.8-1.225-4.183-.427-1.386-.939-2.747-1.457-4.1C2.517,8.116,1.172,4.295,0,.415.164.276.327.137.5,0,1.942,3.871,3.2,7.8,4.349,11.775Z" transform="translate(0)" fill="#5e51b8"/>
              </g>
              <g id="Group_6367" data-name="Group 6367" transform="translate(12.373 12.579)">
                <path id="Path_20854" data-name="Path 20854" d="M4.656,12.689c.408,1.395.823,2.787,1.32,4.151.473,1.373,1.047,2.711,1.553,4.074A85.956,85.956,0,0,1,10.06,29.25l-.069.024A85.494,85.494,0,0,1,6.966,21.1c-.42-1.39-.771-2.8-1.225-4.181-.428-1.388-.939-2.749-1.457-4.106C2.7,8.708,1.237,4.559,0,.334.151.221.307.111.459,0,2.053,4.164,3.419,8.4,4.656,12.689Z" transform="translate(0)" fill="#5e51b8"/>
              </g>
              <g id="Group_6368" data-name="Group 6368" transform="translate(14.848 10.922)">
                <path id="Path_20855" data-name="Path 20855" d="M4.884,13.436c.408,1.395.823,2.787,1.321,4.151.471,1.373,1.047,2.711,1.553,4.074A85.97,85.97,0,0,1,10.289,30l-.069.022A85.477,85.477,0,0,1,7.2,21.848c-.422-1.39-.773-2.8-1.225-4.182-.428-1.388-.941-2.747-1.458-4.106C2.824,9.186,1.287,4.757,0,.247.127.163.261.082.389,0,2.108,4.4,3.573,8.894,4.884,13.436Z" transform="translate(0)" fill="#5e51b8"/>
              </g>
              <g id="Group_6369" data-name="Group 6369" transform="translate(17.364 9.395)">
                <path id="Path_20856" data-name="Path 20856" d="M5.073,14.054c.408,1.393.823,2.785,1.32,4.151.473,1.373,1.047,2.711,1.553,4.072a85.5,85.5,0,0,1,2.531,8.339l-.069.022a86.094,86.094,0,0,1-3.025-8.171c-.42-1.392-.771-2.8-1.225-4.183-.428-1.388-.939-2.747-1.457-4.1C2.927,9.583,1.325,4.93,0,.183.108.12.221.063.329,0,2.156,4.6,3.7,9.3,5.073,14.054Z" transform="translate(0)" fill="#5e51b8"/>
              </g>
              <g id="Group_6370" data-name="Group 6370" transform="translate(19.926 7.998)">
                <path id="Path_20857" data-name="Path 20857" d="M5.213,14.541c.408,1.393.823,2.787,1.321,4.151.473,1.373,1.047,2.711,1.553,4.072A85.975,85.975,0,0,1,10.618,31.1l-.069.022a85.633,85.633,0,0,1-3.025-8.171c-.422-1.392-.773-2.8-1.225-4.183-.428-1.388-.939-2.747-1.458-4.1A152.109,152.109,0,0,1,0,.154C.094.1.182.05.276,0A151.044,151.044,0,0,1,5.213,14.541Z" transform="translate(0)" fill="#5e51b8"/>
              </g>
              <g id="Group_6371" data-name="Group 6371" transform="translate(22.524 6.737)">
                <path id="Path_20858" data-name="Path 20858" d="M5.319,14.892c.408,1.393.823,2.787,1.321,4.151.471,1.373,1.047,2.711,1.553,4.072a85.461,85.461,0,0,1,2.529,8.339l-.067.022A86.088,86.088,0,0,1,7.63,23.305c-.42-1.392-.771-2.8-1.225-4.183-.427-1.388-.939-2.747-1.457-4.1A150.066,150.066,0,0,1,0,.117C.081.079.159.038.24,0A150.126,150.126,0,0,1,5.319,14.892Z" transform="translate(0)" fill="#5e51b8"/>
              </g>
              <g id="Group_6372" data-name="Group 6372" transform="translate(25.151 5.573)">
                <path id="Path_20859" data-name="Path 20859" d="M5.4,15.146c.408,1.395.823,2.787,1.32,4.151.473,1.373,1.047,2.711,1.553,4.072A85.985,85.985,0,0,1,10.8,31.708l-.069.022a85.292,85.292,0,0,1-3.025-8.171c-.42-1.39-.771-2.8-1.225-4.183-.428-1.388-.939-2.747-1.457-4.1A149.308,149.308,0,0,1,0,.093L.216,0A149.633,149.633,0,0,1,5.4,15.146Z" transform="translate(0)" fill="#5e51b8"/>
              </g>
              <g id="Group_6373" data-name="Group 6373" transform="translate(27.805 4.507)">
                <path id="Path_20860" data-name="Path 20860" d="M5.445,15.3c.408,1.395.823,2.787,1.321,4.151.471,1.373,1.047,2.711,1.553,4.074a85.445,85.445,0,0,1,2.529,8.337l-.067.022a85.269,85.269,0,0,1-3.025-8.171c-.422-1.39-.773-2.8-1.225-4.183-.428-1.388-.941-2.747-1.458-4.1A149.294,149.294,0,0,1,0,.074C.067.048.135.026.2,0A149.126,149.126,0,0,1,5.445,15.3Z" transform="translate(0)" fill="#5e51b8"/>
              </g>
              <g id="Group_6374" data-name="Group 6374" transform="translate(30.491 3.536)">
                <path id="Path_20861" data-name="Path 20861" d="M.2,0A149.236,149.236,0,0,1,5.463,15.364c.408,1.395.823,2.787,1.32,4.151.473,1.373,1.047,2.711,1.553,4.074a85.486,85.486,0,0,1,2.531,8.337l-.069.024a85.961,85.961,0,0,1-3.025-8.173c-.42-1.39-.771-2.8-1.225-4.183-.428-1.386-.939-2.747-1.457-4.1A148.4,148.4,0,0,1,0,.067Z" transform="translate(0)" fill="#5e51b8"/>
              </g>
              <g id="Group_6375" data-name="Group 6375" transform="translate(33.212 2.694)">
                <path id="Path_20862" data-name="Path 20862" d="M5.445,15.3c.408,1.395.823,2.787,1.321,4.151.473,1.373,1.047,2.711,1.553,4.074a85.953,85.953,0,0,1,2.531,8.337l-.069.024a85.488,85.488,0,0,1-3.025-8.173c-.422-1.39-.773-2.8-1.225-4.182-.428-1.388-.939-2.749-1.458-4.106A148.933,148.933,0,0,1,0,.063C.068.043.135.019.2,0A148.853,148.853,0,0,1,5.445,15.3Z" transform="translate(0)" fill="#5e51b8"/>
              </g>
              <g id="Group_6376" data-name="Group 6376" transform="translate(35.959 1.952)">
                <path id="Path_20863" data-name="Path 20863" d="M5.4,15.129c.408,1.393.823,2.785,1.321,4.149.471,1.374,1.047,2.711,1.553,4.074a85.33,85.33,0,0,1,2.529,8.339l-.067.022A85.953,85.953,0,0,1,7.712,23.54c-.42-1.39-.771-2.8-1.225-4.181-.428-1.388-.939-2.747-1.457-4.106A149.465,149.465,0,0,1,0,.057L.228,0A149.6,149.6,0,0,1,5.4,15.129Z" transform="translate(0)" fill="#5e51b8"/>
              </g>
              <g id="Group_6377" data-name="Group 6377" transform="translate(38.736 1.309)">
                <path id="Path_20864" data-name="Path 20864" d="M5.33,14.862c.408,1.393.823,2.787,1.32,4.151C7.122,20.385,7.7,21.723,8.2,23.084a85.99,85.99,0,0,1,2.531,8.339l-.069.022A85.508,85.508,0,0,1,7.64,23.273c-.42-1.39-.771-2.8-1.225-4.182-.428-1.388-.939-2.747-1.457-4.1A150.3,150.3,0,0,1,0,.053C.087.034.175.019.262,0A150.517,150.517,0,0,1,5.33,14.862Z" transform="translate(0)" fill="#5e51b8"/>
              </g>
              <g id="Group_6378" data-name="Group 6378" transform="translate(41.539 0.773)">
                <path id="Path_20865" data-name="Path 20865" d="M5.229,14.488c.408,1.393.823,2.787,1.321,4.151C7.021,20.011,7.6,21.35,8.1,22.71a85.494,85.494,0,0,1,2.529,8.339l-.067.022A86.1,86.1,0,0,1,7.539,22.9c-.42-1.392-.771-2.8-1.224-4.183-.428-1.388-.941-2.747-1.458-4.1A151.519,151.519,0,0,1,0,.045C.1.027.207.017.312,0A151.976,151.976,0,0,1,5.229,14.488Z" transform="translate(0)" fill="#5e51b8"/>
              </g>
              <g id="Group_6379" data-name="Group 6379" transform="translate(44.382 0.362)">
                <path id="Path_20866" data-name="Path 20866" d="M5.09,13.989c.408,1.4.823,2.787,1.32,4.151.473,1.373,1.047,2.711,1.553,4.072a85.984,85.984,0,0,1,2.531,8.339l-.069.022A85.924,85.924,0,0,1,7.4,22.4c-.42-1.39-.771-2.8-1.225-4.183-.428-1.388-.939-2.747-1.457-4.1C2.936,9.5,1.328,4.823,0,.053.123.038.248.014.372,0,2.187,4.581,3.724,9.256,5.09,13.989Z" transform="translate(0)" fill="#5e51b8"/>
              </g>
              <g id="Group_6380" data-name="Group 6380" transform="translate(47.262 0.106)">
                <path id="Path_20867" data-name="Path 20867" d="M4.913,13.335c.408,1.395.823,2.787,1.321,4.151.473,1.373,1.047,2.711,1.553,4.072A85.969,85.969,0,0,1,10.318,29.9l-.069.022a85.286,85.286,0,0,1-3.025-8.171c-.422-1.39-.773-2.8-1.225-4.183-.428-1.386-.939-2.747-1.458-4.1C2.84,9.049,1.294,4.586,0,.038.152.027.307.01.459,0,2.161,4.372,3.613,8.827,4.913,13.335Z" transform="translate(0)" fill="#5e51b8"/>
              </g>
              <g id="Group_6381" data-name="Group 6381" transform="translate(50.178 0)">
                <path id="Path_20868" data-name="Path 20868" d="M4.7,12.531c.408,1.395.823,2.787,1.321,4.151.471,1.373,1.047,2.711,1.553,4.074a85.324,85.324,0,0,1,2.53,8.337l-.067.024a85.962,85.962,0,0,1-3.026-8.173c-.42-1.39-.771-2.8-1.225-4.183-.428-1.386-.939-2.747-1.457-4.1C2.723,8.5,1.248,4.291,0,.012.188.007.379,0,.569,0,2.135,4.113,3.481,8.3,4.7,12.531Z" transform="translate(0)" fill="#5e51b8"/>
              </g>
              <g id="Group_6382" data-name="Group 6382" transform="translate(53.162 0.036)">
                <path id="Path_20869" data-name="Path 20869" d="M4.42,11.585c.41,1.395.824,2.787,1.321,4.151.473,1.373,1.047,2.711,1.553,4.074a85.953,85.953,0,0,1,2.531,8.337l-.069.024A85.5,85.5,0,0,1,6.732,20c-.42-1.39-.771-2.8-1.225-4.183-.428-1.386-.939-2.747-1.457-4.1C2.56,7.854,1.189,3.959,0,0,.216.009.432.021.646.031,2.056,3.832,3.3,7.69,4.42,11.585Z" transform="translate(0)" fill="#5e51b8"/>
              </g>
              <g id="Group_6383" data-name="Group 6383" transform="translate(56.219 0.255)">
                <path id="Path_20870" data-name="Path 20870" d="M5.388,14.606c.471,1.373,1.047,2.711,1.553,4.073A85.455,85.455,0,0,1,9.47,27.017l-.067.024a85.97,85.97,0,0,1-3.026-8.173c-.42-1.39-.771-2.8-1.224-4.183-.428-1.386-.941-2.747-1.458-4.1C2.35,7.093,1.107,3.57,0,0,.242.026.48.058.72.089,1.952,3.506,3.059,6.965,4.067,10.456,4.475,11.851,4.889,13.242,5.388,14.606Z" transform="translate(0)" fill="#5e51b8"/>
              </g>
              <g id="Group_6384" data-name="Group 6384" transform="translate(59.345 0.694)">
                <path id="Path_20871" data-name="Path 20871" d="M3.645,9.107c.408,1.395.823,2.787,1.32,4.152.473,1.371,1.047,2.711,1.553,4.072A85.829,85.829,0,0,1,9.049,25.67l-.069.022A85.958,85.958,0,0,1,5.955,17.52c-.42-1.39-.771-2.8-1.225-4.181C4.3,11.95,3.791,10.591,3.273,9.232Q1.507,4.661,0,0C.271.051.545.1.809.156Q2.351,4.59,3.645,9.107Z" transform="translate(0)" fill="#5e51b8"/>
              </g>
              <g id="Group_6385" data-name="Group 6385" transform="translate(62.598 1.476)">
                <path id="Path_20872" data-name="Path 20872" d="M0,0C.3.089.588.182.874.278Q2.056,3.822,3.095,7.417C3.5,8.81,3.918,10.2,4.416,11.568c.473,1.373,1.047,2.711,1.553,4.072A85.987,85.987,0,0,1,8.5,23.979L8.432,24A85.6,85.6,0,0,1,5.407,15.83c-.422-1.392-.773-2.805-1.225-4.183-.428-1.388-.939-2.747-1.458-4.1Q1.278,3.8,0,0Z" transform="translate(0)" fill="#5e51b8"/>
              </g>
              <g id="Group_6386" data-name="Group 6386" transform="translate(66.07 2.783)">
                <path id="Path_20873" data-name="Path 20873" d="M0,0C.3.141.6.283.881.434Q1.631,2.806,2.327,5.2c.408,1.393.823,2.787,1.321,4.151.471,1.373,1.045,2.711,1.553,4.072a85.963,85.963,0,0,1,2.53,8.339l-.067.022a86.1,86.1,0,0,1-3.026-8.171c-.42-1.392-.771-2.8-1.225-4.183-.428-1.388-.939-2.747-1.457-4.1C1.273,3.559.627,1.782,0,0Z" transform="translate(0)" fill="#5e51b8"/>
              </g>
              <g id="Group_6387" data-name="Group 6387" transform="translate(69.988 5.213)">
                <path id="Path_20874" data-name="Path 20874" d="M6.517,18.421l-.069.022a85.294,85.294,0,0,1-3.025-8.171C3,8.882,2.653,7.468,2.2,6.089,1.77,4.7,1.26,3.342.742,1.985.487,1.325.247.661,0,0,.262.218.516.439.756.667c.116.4.242.793.356,1.193.41,1.393.824,2.787,1.321,4.151.473,1.373,1.047,2.711,1.553,4.072A85.985,85.985,0,0,1,6.517,18.421Z" transform="translate(0)" fill="#5e51b8"/>
              </g>
            </g>
          </g>
          <g id="Group_6394" data-name="Group 6394" transform="translate(0 4.022)">
            <g id="Group_6390" data-name="Group 6390" transform="translate(0 0)">
              <ellipse id="Ellipse_163" data-name="Ellipse 163" cx="20.591" cy="38.78" rx="20.591" ry="38.78" transform="translate(73.509 0) rotate(71.401)" fill="#ffbe10"/>
            </g>
            <g id="Group_6391" data-name="Group 6391" transform="translate(10.531 12.134)">
              <path id="Path_20875" data-name="Path 20875" d="M45.454,0C31.511,0,14.956,6.451,6,15.917.888,21.31-1.048,26.885.542,31.613s6.5,8,13.833,9.208C29.264,43.279,49.822,36.361,60.2,25.4c5.109-5.393,7.043-10.97,5.455-15.7s-6.5-8-13.835-9.208h0A39.254,39.254,0,0,0,45.454,0ZM20.78,40.365a38.233,38.233,0,0,1-6.248-.488C7.567,38.731,2.921,35.685,1.447,31.308S1.836,21.7,6.689,16.574C16.87,5.817,37.046-.982,51.663,1.44c6.963,1.148,11.611,4.192,13.083,8.569s-.389,9.611-5.241,14.736C50.708,34.035,34.46,40.365,20.78,40.365Z" transform="translate(0)" fill="#ff8b0d"/>
            </g>
          </g>
        </g>
      </g>
      <g id="Group_6677" data-name="Group 6677" transform="translate(459.501 625.979)">
        <g id="Group_6548" data-name="Group 6548" transform="translate(0)">
          <path id="Path_20964" data-name="Path 20964" d="M29.9,0,53.873,11.531l5.922,25.911L40.4,68H19.465L0,33.9l5.92-22.372Z" transform="translate(59.795 67.998) rotate(180)" fill="#5aad8b"/>
          <path id="Path_20965" data-name="Path 20965" d="M26.494-.728l5.534,21.8L24.552,38.9,0,48.8l7.307,3.308L31.333,40.672l6.035-22.39Z" transform="translate(22.556 15.784)" fill="#529178"/>
        </g>
      </g>
      <g id="Group_6678" data-name="Group 6678" transform="translate(399.501 582.979)">
        <g id="Group_6548-2" data-name="Group 6548" transform="translate(0)">
          <path id="Path_20964-2" data-name="Path 20964" d="M15.817,0,28.5,6.1l3.133,13.708L21.372,35.975H10.3L0,17.937,3.132,6.1Z" transform="translate(31.634 35.975) rotate(180)" fill="#5aad8b"/>
          <path id="Path_20965-2" data-name="Path 20965" d="M14.017-.728,16.945,10.8,12.99,20.239,0,25.476l3.866,1.75,12.711-6.051L19.77,9.329Z" transform="translate(11.933 8.694)" fill="#529178"/>
        </g>
      </g>
      <g id="seasoning" transform="translate(409.855 595.755)">
        <path id="Path_20960" data-name="Path 20960" d="M31.375,12.514H35.88a.371.371,0,0,0,.375-.367V6.99a8.136,8.136,0,0,0-.388-2.308,8.381,8.381,0,0,1-.35-1.749h.363a.371.371,0,0,0,.375-.367V1.033a.364.364,0,0,0-.167-.305,4.525,4.525,0,0,0-4.921,0A.364.364,0,0,0,31,1.033V2.566a.371.371,0,0,0,.375.366h.363a8.383,8.383,0,0,1-.35,1.749A8.135,8.135,0,0,0,31,6.99v5.157A.371.371,0,0,0,31.375,12.514Zm.375-11.279A3.722,3.722,0,0,1,32.5.905V1.1a.376.376,0,0,0,.751,0V.752q.186-.019.375-.019T34,.752V1.1a.376.376,0,0,0,.751,0V.905a3.722,3.722,0,0,1,.751.33V2.2H31.751Zm0,5.755a7.447,7.447,0,0,1,.362-2.116,8.93,8.93,0,0,0,.377-1.941h2.275a8.93,8.93,0,0,0,.377,1.941,7.447,7.447,0,0,1,.362,2.116v.367H31.751Zm0,1.1h3.754V9.948a.372.372,0,0,1-.375.367h-3a.372.372,0,0,1-.375-.367Zm0,2.894a1.145,1.145,0,0,0,.375.063h3a1.145,1.145,0,0,0,.375-.063v.8H31.751Z" transform="translate(-31 0)" fill="#fff"/>
        <path id="Path_20961" data-name="Path 20961" d="M271.375,12.514h4.5a.371.371,0,0,0,.375-.367V6.99a8.137,8.137,0,0,0-.388-2.308,8.379,8.379,0,0,1-.35-1.749h.363a.371.371,0,0,0,.375-.367V1.033a.364.364,0,0,0-.167-.305,4.525,4.525,0,0,0-4.921,0,.364.364,0,0,0-.167.305V2.566a.371.371,0,0,0,.375.366h.363a8.379,8.379,0,0,1-.35,1.749A8.136,8.136,0,0,0,271,6.99v5.157A.371.371,0,0,0,271.375,12.514Zm.375-11.279a3.721,3.721,0,0,1,.751-.33V1.1a.376.376,0,0,0,.751,0V.752q.186-.019.375-.019T274,.752V1.1a.376.376,0,0,0,.751,0V.905a3.723,3.723,0,0,1,.751.33V2.2h-3.754Zm3.47,3.922h-3.185c.025-.094.051-.188.078-.283a8.929,8.929,0,0,0,.377-1.941h2.275a8.928,8.928,0,0,0,.377,1.941C275.169,4.969,275.2,5.063,275.22,5.157Zm-3.47,1.833a5.674,5.674,0,0,1,.109-1.1H275.4a5.671,5.671,0,0,1,.109,1.1V9.948a.372.372,0,0,1-.375.367h-3a.371.371,0,0,1-.375-.367Zm0,3.994a1.145,1.145,0,0,0,.375.063h3a1.146,1.146,0,0,0,.375-.063v.8h-3.754Z" transform="translate(-265.257 0)" fill="#fff"/>
      </g>
      <g id="Group_6679" data-name="Group 6679" transform="translate(355.501 623.979)">
        <g id="Group_6548-3" data-name="Group 6548" transform="translate(0)">
          <path id="Path_20964-3" data-name="Path 20964" d="M18.589,0,33.5,7.17l3.682,16.111-12.061,19H12.1L0,21.08,3.681,7.17Z" transform="translate(37.179 42.281) rotate(180)" fill="#5aad8b"/>
          <path id="Path_20965-3" data-name="Path 20965" d="M16.474-.728l3.441,13.552L15.266,23.913,0,30.069l4.544,2.057,14.939-7.111,3.752-13.922Z" transform="translate(14.025 10.09)" fill="#529178"/>
        </g>
      </g>
      <g id="Group_6675" data-name="Group 6675" transform="translate(-13515 574.087)">
        <path id="Path_21141" data-name="Path 21141" d="M17028.818-70.38l-34.35,25.865-64.268,31.7-6.488,8.433-13.082,5.994-7.92,13.339-4.99,2.772V13.493l8-13.944-13.033,11.181-5.006,1.645,1.746-4.52,15.018-14.341-20.861,10.41h-2.535V1.608l20.342-16.659-18.8,7.192h-4.807l4.807-4.96,26.348-14.486-6.227-3.172v-7.25l22.641,11.816,69.117-44.47,18.395-19.712Z" transform="translate(-3458 280.122)" fill="url(#linear-gradient)"/>
        <path id="Path_21143" data-name="Path 21143" d="M16987.307-45.428l28.914-29.734,49.174-69.914-4.748-10.31-6.3-13.674,7.113,3.562,3.178,4.237,15.873-27.111,3.771-2.519v5.454l-7.883,17.69,13.857-16.035,5.975-4.59-2.152,8.132-8.791,15.965,14.338-15.134,4.83-.831-2.434,4.7-11.377,12.327,15.326-7.472h3.908l-5.424,6.413-12.48,5.914-5.186,13.284-8.107,6.267-29.543,64.725-42.484,46Z" transform="translate(-3309.884 146)" fill="url(#linear-gradient-2)"/>
        <path id="Path_21142" data-name="Path 21142" d="M16934.543-40.556l20.58,24.919,10.531,3.459,16.621-21.877,21.148,63.391-4.8,41.9,98.2-7.045,22.43-10.206-35.437-97.8-20.379-36.435,21.785-13.787-9.674-21.823-17.756-13.7-30.32,20.319-15.363,5.154,16.846,4.35-1.482,19.488-18.887,11.273-20.264-4.726,2.824-20.225Z" transform="translate(-3382.479 227.598)" fill="url(#linear-gradient-3)"/>
        <path id="Path_21145" data-name="Path 21145" d="M17077.727,12.872l1.1,60.219-23.975,2.8-110.371,17.244-21.094,23.691-5.514,11.694,6.842,4.137a33.385,33.385,0,0,0,12.119-7.05c6.018-5.389,11.953-14.507,11.953-14.507l15.162-6.244,72.686,6.244,42.191,11.487,39.375-5,13-44.488-2.01-121.56-10.957,4.782Z" transform="translate(-3404.663 335.506)" fill="url(#linear-gradient-4)"/>
        <path id="Path_21144" data-name="Path 21144" d="M17054.75-40.033l-14.691,77.442-10.566,31.115-69.527-21.241-14.5-9.874-41.543,47.148-3.82,13.083,6.3,3.234,9.633-5.091,14.73-15.535,14.7-5.389,63.379,37.007,27.145,6.242,20.828-8.635,44.949-99.253,40.449-56.748Z" transform="translate(-3428.302 338.091)" fill="url(#linear-gradient-5)"/>
        <path id="Path_21146" data-name="Path 21146" d="M16954.781-96.5h-13.066V-103h5.006l4.943,3.195-9.3-19.97,7.041-5.051-6.479-12.626,26.35-1.49,7.279-6.756,17.029,27.18,3.391,16.387-4.623,5.635,10.795,13.883,16.225,4.453-1.062,19.2-3.531,2.1-16.027,9.357-19.959-4.794,2.824-20.434-8.068-17.145Z" transform="translate(-3372.936 206.128)" fill="#ffc5b1"/>
        <path id="Path_21147" data-name="Path 21147" d="M16956.2-143.354l2.037-9.7,16.113-3.981,7.246,17.117.822,9.916-8.068,6.717-26.094.988,6.8,12.265-7.334,5.491,10.518,21.616-6.187-4.83h-5.031l-9.336-16.135v-11.86l4.25-12.807,6.324-17.038Z" transform="translate(-3378.303 191.041)" fill="#ff7621"/>
        <path id="Path_21148" data-name="Path 21148" d="M16955.43-121.762l9.668.572-6.145,7.33Z" transform="translate(-3354.692 237.982)" fill="#f5a88d"/>
        <path id="Path_21156" data-name="Path 21156" d="M17106.17-159.054l4.617-3.255,3.051,4.762-5.551,2.632Z" transform="translate(-3522.352 256.279)" fill="#fcb8a1"/>
        <path id="Path_21157" data-name="Path 21157" d="M17115-164.24l2.25,3.412,6.035-3.412-2.395-4.252Z" transform="translate(-3510.598 248.051)" fill="#fcb8a1"/>
        <path id="Path_21158" data-name="Path 21158" d="M17111.941-155.94l13.971-6.9,1.973,6.9-12.717,5.456Z" transform="translate(-3514.663 255.566)" fill="#fff"/>
        <path id="Path_21159" data-name="Path 21159" d="M17106.336-161.071l1.738-2.875,3.135-1.786" transform="translate(-3519.795 251.724)" fill="none" stroke="#707070" stroke-width="1"/>
        <path id="Path_21160" data-name="Path 21160" d="M17105.559-162.119l2.109-2.2,3.424-.43" transform="translate(-3506.846 243.709)" fill="none" stroke="#707070" stroke-width="1"/>
        <path id="Path_21161" data-name="Path 21161" d="M17103.244-160.924l3.281-6.671h4.662" transform="translate(-3523.905 249.246)" fill="none" stroke="#ff7621" stroke-width="2"/>
        <path id="Path_21162" data-name="Path 21162" d="M17109.461-167.649l6.063-4.388,4.125,1.827" transform="translate(-3515.642 243.334)" fill="none" stroke="#ff7621" stroke-width="2"/>
        <path id="Path_21163" data-name="Path 21163" d="M17111.941-158.969l3.227-1.6v7.181Z" transform="translate(-3514.663 258.594)" fill="#f2f2f2"/>
      </g>
      <g id="orange_1_" data-name="orange (1)" transform="translate(290.222 638.894)">
        <path id="Path_20956" data-name="Path 20956" d="M84.5,6.653a2.744,2.744,0,0,0-.083-.747h1.715A2.967,2.967,0,0,0,89.1,2.942V.654A.654.654,0,0,0,88.442,0H86.154A2.967,2.967,0,0,0,83.19,2.964V4.306a2.579,2.579,0,0,0-1.284-.339.654.654,0,0,0,0,1.308,1.278,1.278,0,0,1,.91.377,1.348,1.348,0,0,1,.376,1,7.846,7.846,0,1,0,1.308,0Zm1.654-5.345h1.635V2.942A1.658,1.658,0,0,1,86.132,4.6h-.71l1.471-1.471a.654.654,0,0,0-.925-.925L84.5,3.674v-.71A1.658,1.658,0,0,1,86.154,1.308Zm-2.308,19.7a6.538,6.538,0,1,1,6.538-6.538A6.546,6.546,0,0,1,83.846,21.01Z" transform="translate(0 -4)" fill="#fff"/>
        <circle id="Ellipse_316" data-name="Ellipse 316" cx="0.647" cy="0.647" r="0.647" transform="translate(79.286 12.366)" fill="#fff"/>
        <circle id="Ellipse_317" data-name="Ellipse 317" cx="0.647" cy="0.647" r="0.647" transform="translate(81.739 11.8)" fill="#fff"/>
        <circle id="Ellipse_318" data-name="Ellipse 318" cx="0.647" cy="0.647" r="0.647" transform="translate(81.222 14.233)" fill="#fff"/>
      </g>
      <path id="plant-pot" d="M147.412,25.284h-2.039c-.556-.557-1.7-1.7-2.846-2.846a5.56,5.56,0,0,0-2.784-1.513V9.946h.084a7.5,7.5,0,0,0,7.5-7.5V1.18A1.18,1.18,0,0,0,146.148,0h-1.264a7.507,7.507,0,0,0-7.5,7.5v2.756a7.546,7.546,0,0,0-5.141-2.039h-1.264A1.18,1.18,0,0,0,129.8,9.4v1.264a7.507,7.507,0,0,0,7.5,7.5h.084v2.763a5.586,5.586,0,0,0-2.784,1.512c-1.133,1.136-2.286,2.288-2.845,2.845h-2.04a1.18,1.18,0,0,0-1.18,1.18v5.057a1.18,1.18,0,0,0,1.18,1.18h1.348v6.4a1.18,1.18,0,0,0,1.18,1.18h12.642a1.18,1.18,0,0,0,1.18-1.18V32.7h1.348a1.18,1.18,0,0,0,1.18-1.18V26.464A1.18,1.18,0,0,0,147.412,25.284ZM139.743,7.5a5.145,5.145,0,0,1,5.141-5.141h.084v.084a5.142,5.142,0,0,1-5.141,5.141h-.084ZM137.3,15.8a5.145,5.145,0,0,1-5.141-5.141v-.084h.084a5.141,5.141,0,0,1,5.141,5.141V15.8Zm-1.031,8.305a3.25,3.25,0,0,1,4.59,0l1.178,1.177h-6.943l1.175-1.176ZM143.7,37.926H133.422V32.7H143.7v5.225Zm2.528-7.585H130.894v-2.7h15.338Z" transform="translate(349.467 638.211)" fill="#fff"/>
      <g id="Group_6680" data-name="Group 6680">
        <circle id="Ellipse_343" data-name="Ellipse 343" cx="54.5" cy="54.5" r="54.5" transform="translate(634 529)" fill="#ffbe10"/>
        <g id="Ellipse_344" data-name="Ellipse 344" transform="translate(644 539)" fill="none" stroke="#e3aa11" stroke-width="2">
          <circle cx="44.5" cy="44.5" r="44.5" stroke="none"/>
          <circle cx="44.5" cy="44.5" r="43.5" fill="none"/>
        </g>
      </g>
    </g>
  </g>
</svg>
