<svg xmlns="http://www.w3.org/2000/svg" width="239.752" height="108" viewBox="0 0 239.752 108">
  <g id="selada_segar" transform="translate(2062 -1269.584)">
    <g id="Group_13" data-name="Group 13" transform="translate(-2062 1285.069)">
      <path id="Path_1" data-name="Path 1" d="M105.581,0s6.905,17.326-22.69,28.964C66.809,35.286,54.458,51.489,69.206,76.52c1.221-11.188,6.458-35.857,28.978-41.486,0,0-20.959,8.038-22.811,44.422,10.77,1.551,36.028,2.593,43.527-19.887C128.8,29.867,105.581,0,105.581,0Z" transform="translate(-62.605 0)" fill="#6eb267"/>
      <path id="Path_2" data-name="Path 2" d="M75.382,79.326a68.414,68.414,0,0,0,41.8-57.467A88.126,88.126,0,0,0,105.581,0s6.905,17.331-22.69,28.972C66.809,35.3,54.458,51.5,69.206,76.54c1.221-11.191,6.458-35.866,28.978-41.5C98.182,35.043,77.285,43.063,75.382,79.326Z" transform="translate(-62.605 0)" fill="#82bb58"/>
      <circle id="Ellipse_1" data-name="Ellipse 1" cx="2.137" cy="2.137" r="2.137" transform="translate(2.181 25.193)" fill="#ff9434"/>
      <g id="Group_1" data-name="Group 1" transform="translate(5.846 6.209)">
        <path id="Path_5" data-name="Path 5" d="M1.527,0A1.527,1.527,0,1,1,0,1.527,1.527,1.527,0,0,1,1.527,0Z" transform="translate(3.664 16.793)" fill="#ff9434"/>
        <path id="Path_3" data-name="Path 3" d="M3.817,0A3.817,3.817,0,1,1,0,3.817,3.817,3.817,0,0,1,3.817,0Z" fill="#ff9434"/>
        <path id="Path_4" data-name="Path 4" d="M1.221,0A1.221,1.221,0,1,1,0,1.221,1.221,1.221,0,0,1,1.221,0Z" transform="translate(14.351 11.297)" fill="#ff9434"/>
        <circle id="Ellipse_5" data-name="Ellipse 5" cx="3.511" cy="3.511" r="3.511" transform="translate(22.291 2.137)" fill="#ff9434"/>
      </g>
    </g>
    <text id="Selada_Segar." data-name="Selada
Segar." transform="translate(-1993.248 1320.584)" fill="#ff9434" font-size="49" font-family="Poppins-Medium, Poppins" font-weight="500"><tspan x="0" y="0">Selada</tspan><tspan fill="#82bb58"><tspan x="0" y="40">Segar.</tspan></tspan></text>
  </g>
</svg>
