<svg xmlns="http://www.w3.org/2000/svg" width="859.757" height="579.169" viewBox="0 0 859.757 579.169">
  <g id="tntedc_img_1" transform="translate(-951 -2482)">
    <g id="Group_6643" data-name="Group 6643">
      <g id="Group_6640" data-name="Group 6640" transform="translate(10.079)">
        <g id="Group_6639" data-name="Group 6639">
          <g id="Group_6638" data-name="Group 6638">
            <path id="Path_21091" data-name="Path 21091" d="M10010.148,2628.795c11.554-10.353,141.253-122.179,141.253-122.179h225.432l54.1,60.038h90.017l54.1-60.038H10684.8l71.88,79.765v133.942l-151.051,167.619h-97.039l-57.668-63.994h-173.806l-93.323,103.561H9946.976l-49.946-55.426V2769.108l43.963-48.786V2655.44Z" transform="translate(-8956 35.023)" fill="#1ca9e8"/>
            <path id="Path_21095" data-name="Path 21095" d="M10756.678,2457.147l-23.687,23.686v102.676l-149.521,163.072h-60.905l-63.186-69.857h-131.874l-16.718,16.718h139.946l63.868,72.652h83.832l158.243-174.644Z" transform="translate(-8956 165.023)" fill="#0388c4"/>
            <path id="Path_21096" data-name="Path 21096" d="M10454.231,2423.348h87.038l48.793-60.454-48.793-48.792h-87.038l-48.793,48.792" transform="translate(-8979.438 167.922)" fill="#1ca9e8"/>
            <g id="Group_6628" data-name="Group 6628" transform="translate(60 7.023)">
              <path id="Polygon_5" data-name="Polygon 5" d="M24.5,0,49,42H0Z" transform="translate(1415 2655)" fill="#036693"/>
              <path id="Polygon_6" data-name="Polygon 6" d="M24.5,0,49,42H0Z" transform="translate(1489 2739) rotate(180)" fill="#0388c4"/>
            </g>
            <g id="Group_6629" data-name="Group 6629" transform="translate(199 -59.977)">
              <path id="Polygon_5-2" data-name="Polygon 5" d="M24.5,0,49,42H0Z" transform="translate(1415 2655)" fill="#036693"/>
              <path id="Polygon_6-2" data-name="Polygon 6" d="M24.5,0,49,42H0Z" transform="translate(1489 2739) rotate(180)" fill="#0388c4"/>
            </g>
            <g id="Group_6630" data-name="Group 6630" transform="translate(253 99.023)">
              <path id="Polygon_5-3" data-name="Polygon 5" d="M24.5,0,49,42H0Z" transform="translate(1415 2655)" fill="#036693"/>
              <path id="Path_21097" data-name="Path 21097" d="M32.944,14.475,49,42H8.783Z" transform="translate(1489 2739) rotate(180)" fill="#0388c4"/>
            </g>
            <g id="Group_6631" data-name="Group 6631" transform="translate(-269 70.023)">
              <path id="Polygon_5-4" data-name="Polygon 5" d="M14,0,28,24H0Z" transform="translate(1415 2655)" fill="#036693"/>
              <path id="Polygon_6-3" data-name="Polygon 6" d="M14,0,28,23H0Z" transform="translate(1457 2702) rotate(180)" fill="#ffa2a2"/>
            </g>
            <g id="Group_6632" data-name="Group 6632" transform="translate(-78 -130.977)">
              <path id="Path_21098" data-name="Path 21098" d="M35.8,17.653,49,42H0L14.733,17.653Z" transform="translate(1415 2655)" fill="#036693"/>
              <path id="Polygon_6-4" data-name="Polygon 6" d="M24.5,0,49,42H0Z" transform="translate(1489 2739) rotate(180)" fill="#0388c4"/>
            </g>
            <g id="Group_6633" data-name="Group 6633" transform="translate(-440 15.023)">
              <path id="Path_21099" data-name="Path 21099" d="M31.943,11.872,49,42H10.015l.051-16.3,4.279-6.93Z" transform="translate(1415 2655)" fill="#036693"/>
              <path id="Polygon_6-5" data-name="Polygon 6" d="M24.5,0,49,42H0Z" transform="translate(1489 2739) rotate(180)" fill="#0388c4"/>
            </g>
            <g id="Group_6634" data-name="Group 6634" transform="translate(-503 211.023)">
              <path id="Path_21100" data-name="Path 21100" d="M29.106,7.9,49,42H28.921Z" transform="translate(1415 2655)" fill="#036693"/>
              <path id="Path_21101" data-name="Path 21101" d="M45.066,42H0L17.194,12.056Z" transform="translate(1489 2739) rotate(180)" fill="#0388c4"/>
            </g>
            <g id="Group_6636" data-name="Group 6636" transform="translate(66 -134.977)">
              <path id="Path_27926" data-name="Path 27926" d="M12,0,24,20H0Z" transform="translate(1415 2655)" fill="#036693"/>
              <path id="Polygon_6-6" data-name="Polygon 6" d="M12,0,24,21H0Z" transform="translate(1451 2696) rotate(180)" fill="#0388c4"/>
            </g>
            <g id="Group_6637" data-name="Group 6637" transform="translate(-241 -83.977)">
              <path id="Polygon_5-5" data-name="Polygon 5" d="M35.5,0,71,61H0Z" transform="translate(1415 2655)" fill="#036693"/>
              <path id="Polygon_6-7" data-name="Polygon 6" d="M35.5,0,71,60H0Z" transform="translate(1522 2776) rotate(180)" fill="#0388c4"/>
            </g>
            <path id="Path_21102" data-name="Path 21102" d="M10517.828,2316.977l41.92,48.774Z" transform="translate(-8956 165.023)" fill="#0388c4"/>
          </g>
        </g>
      </g>
      <g id="Group_6642" data-name="Group 6642" transform="translate(-43.348 -56.564)">
        <path id="Path_21094" data-name="Path 21094" d="M410.8,0C637.679,0,821.6,34.528,821.6,77.121s-183.922,77.121-410.8,77.121S0,119.714,0,77.121,183.922,0,410.8,0Z" transform="translate(1029.059 2963.49)" fill="#d9f3ff"/>
        <g id="Group_6626" data-name="Group 6626" transform="translate(1626.273 2752.255) rotate(45)">
          <path id="Path_27927" data-name="Path 27927" d="M0,0H212.542V123.314H0Z" transform="matrix(-0.545, -0.839, 0.839, -0.545, 135.81, 245.414)" fill="#0388c4"/>
          <rect id="Rectangle_638" data-name="Rectangle 638" width="212.542" height="123.314" transform="matrix(-0.545, -0.839, 0.839, -0.545, 115.758, 245.414)" fill="#fff"/>
          <rect id="Rectangle_639" data-name="Rectangle 639" width="37.095" height="34.087" transform="matrix(-0.545, -0.839, 0.839, -0.545, 37.02, 100.385)" fill="#1ca9e8"/>
          <rect id="Rectangle_640" data-name="Rectangle 640" width="111.284" height="8.02" transform="matrix(-0.545, -0.839, 0.839, -0.545, 118.358, 225.969)" fill="#1ca9e8"/>
          <rect id="Rectangle_641" data-name="Rectangle 641" width="22.056" height="8.02" transform="matrix(-0.545, -0.839, 0.839, -0.545, 129.386, 218.951)" fill="#fdebeb"/>
        </g>
        <g id="Group_6641" data-name="Group 6641" transform="translate(1185.216 2750.061)">
          <g id="Group_6622" data-name="Group 6622" transform="translate(0 0)">
            <line id="Line_2" data-name="Line 2" y1="13.355" x2="1.282" transform="translate(380.796 0)" fill="#386167"/>
            <path id="Path_21076" data-name="Path 21076" d="M219.36,305.385l-44.891,20.94-11.664,70.441L188.345,423.3l43.623,10.178L271.117,410.3l31.09,2.911,36.28,24.3,241.652,4.636,115.683-33.925-19.153-28.334-34.174-17.358L375.319,292.756H359.854Z" transform="translate(-162.806 -130.529)" fill="#1ca9e8"/>
            <path id="Path_21077" data-name="Path 21077" d="M188.314,421.6l10.845-44.448,38.188-18.163,27.279,2.73,261.588,76.734,53.923,2.016-18.628-28.415L499.331,383.7l-280.31-79.94-45.28,21.7-10.8,70.076Z" transform="translate(-162.785 -128.853)" fill="#0388c4"/>
            <path id="Path_21078" data-name="Path 21078" d="M256.885,310.687l109.536,30.344,101.008-13.4L366.421,299.311Z" transform="translate(-148.476 -129.531)" fill="#fff"/>
            <path id="Path_21079" data-name="Path 21079" d="M374.6,341.045l26.48-3.867,26.684,8.246-26.684,5.014Z" transform="translate(-130.547 -123.763)" fill="#fff"/>
            <path id="Path_21080" data-name="Path 21080" d="M406.139,337.006l26.8,9.3,26.161-4.342-27.034-8.586Z" transform="translate(-125.742 -124.341)" fill="#fff"/>
            <path id="Path_21081" data-name="Path 21081" d="M437.272,332.332l26.539,9.181,26.807-4.117-26.807-9.035Z" transform="translate(-121 -125.106)" fill="#fff"/>
            <path id="Path_21082" data-name="Path 21082" d="M416.989,351.632l27.219,8.9,26.336-3.944-26.336-9.064Z" transform="translate(-124.09 -122.187)" fill="#fff"/>
            <path id="Path_21083" data-name="Path 21083" d="M448.725,348.1l26.44,8.554,26.848-4.2-26.848-8.684Z" transform="translate(-119.256 -122.759)" fill="#fff"/>
            <path id="Path_21084" data-name="Path 21084" d="M479.844,342.583l25.951-3.881,26.751,8.884-26.751,4.458Z" transform="translate(-114.516 -123.531)" fill="#fff"/>
            <path id="Path_21085" data-name="Path 21085" d="M459.4,362.112l26.922-3.7,26.208,8.789-26.208,4.7Z" transform="translate(-117.629 -120.529)" fill="#fff"/>
            <path id="Path_21086" data-name="Path 21086" d="M491.112,358.325l26.454-4.163,26.6,8.984-26.6,4.559Z" transform="translate(-112.8 -121.176)" fill="#fff"/>
            <path id="Path_21087" data-name="Path 21087" d="M521.906,353.34l27.074-3.974,26.067,8.894-26.067,5.153Z" transform="translate(-108.109 -121.907)" fill="#fff"/>
            <path id="Path_21088" data-name="Path 21088" d="M250.539,331.751,357.3,319.26l-8.568-34.033-62.15-47.541-2.527-35.374,68.914-3.227V182.527l-29.511-29.952L218.388,159.3l-37.043,28.927,2.7,52.751,61.2,63.411Z" transform="translate(-159.982 -151.881)" fill="#fff"/>
            <path id="Path_21089" data-name="Path 21089" d="M213.536,159.288l26.69,14.209,10.283,30.49h29.9l67.845-4.97V182.642l-29.706-30.06Z" transform="translate(-155.079 -151.88)" fill="#0388c4"/>
            <path id="Path_21103" data-name="Path 21103" d="M256,310.328l110.644,30.541,5.947-40.161-5.964-1.617Z" transform="translate(-148.71 -129.311)" fill="#1ca9e8" opacity="0.141"/>
            <path id="Path_21104" data-name="Path 21104" d="M346.843,339.115l9.819-1.33,3.784-35.321-8.47-2.342Z" transform="translate(-125.655 -128.002)" fill="#f06969" opacity="0.05"/>
            <path id="Path_21105" data-name="Path 21105" d="M508.721,402.124,623.975,368.4l19.188,28.312-115.7,33.949Z" transform="translate(-110.118 -119.008)" fill="#036693"/>
          </g>
          <path id="Path_21090" data-name="Path 21090" d="M15527.385,104.495l20.762,16.306,13.484,38.282,94.949-14.582-91.629,4.728-10.588-30.925Z" transform="translate(-15468.952 -97.095)" fill="#036693"/>
        </g>
        <g id="Group_6625" data-name="Group 6625" transform="translate(998.348 2752.36)">
          <rect id="Rectangle_636" data-name="Rectangle 636" width="244.291" height="141.735" transform="matrix(-0.545, -0.839, 0.839, -0.545, 156.097, 282.074)" fill="#0388c4"/>
          <rect id="Rectangle_638-2" data-name="Rectangle 638" width="244.291" height="141.735" transform="matrix(-0.545, -0.839, 0.839, -0.545, 133.05, 282.074)" fill="#fff"/>
          <rect id="Rectangle_639-2" data-name="Rectangle 639" width="36.874" height="39.179" transform="matrix(-0.545, -0.839, 0.839, -0.545, 39.412, 110.548)" fill="#1ca9e8"/>
          <rect id="Rectangle_640-2" data-name="Rectangle 640" width="85.271" height="9.219" transform="matrix(-0.545, -0.839, 0.839, -0.545, 136.038, 259.724)" fill="#1ca9e8"/>
          <rect id="Rectangle_641-2" data-name="Rectangle 641" width="25.351" height="9.219" transform="matrix(-0.545, -0.839, 0.839, -0.545, 224.766, 205.565)" fill="#1ca9e8"/>
          <rect id="Rectangle_642" data-name="Rectangle 642" width="41.483" height="28.808" transform="matrix(-0.545, -0.839, 0.839, -0.545, 148.881, 251.13)" fill="#1ca9e8"/>
          <rect id="Rectangle_643" data-name="Rectangle 643" width="197.046" height="9.219" transform="matrix(-0.545, -0.839, 0.839, -0.545, 208.634, 215.936)" fill="#1ca9e8"/>
        </g>
        <g id="Group_6396" data-name="Group 6396" transform="translate(1574.615 2824.18) rotate(180)">
          <g id="Group_6359" data-name="Group 6359" transform="translate(0 0)">
            <g id="Group_6353" data-name="Group 6353" transform="translate(4.765)">
              <g id="Group_6324" data-name="Group 6324" transform="translate(0)">
                <path id="Path_20817" data-name="Path 20817" d="M0,31.33,87.518,49.45,90.715,34h0c1.232-5.946-1.809-12.777-9.414-19.082C66.092,2.309,38.386-3.426,19.418,2.109,9.933,4.876,4.429,9.937,3.2,15.885h0Z" fill="#fff"/>
              </g>
              <g id="Group_6352" data-name="Group 6352" transform="translate(2.018 0.006)">
                <g id="Group_6325" data-name="Group 6325" transform="translate(0 9.043)">
                  <path id="Path_20818" data-name="Path 20818" d="M4.133.869c.243-.294.5-.585.772-.869-.192.79-.373,1.584-.573,2.374-.4,1.623-.8,3.25-1.1,4.9C2.9,8.91,2.7,10.577,2.411,12.226a98.864,98.864,0,0,1-2.33,9.767L0,21.975a98.848,98.848,0,0,1,1.742-9.89c.389-1.627.861-3.237,1.213-4.874.379-1.629.662-3.278.936-4.931C3.965,1.809,4.054,1.339,4.133.869Z" fill="#dcd9ff"/>
                </g>
                <g id="Group_6326" data-name="Group 6326" transform="translate(3.219 5.721)">
                  <path id="Path_20819" data-name="Path 20819" d="M4.884.618C5.19.407,5.508.2,5.832,0c-.47,2.125-.964,4.248-1.5,6.361-.4,1.625-.8,3.25-1.1,4.9C2.9,12.9,2.7,14.564,2.411,16.213A98.717,98.717,0,0,1,.081,25.98L0,25.964a99.263,99.263,0,0,1,1.74-9.89c.391-1.627.863-3.239,1.212-4.874.381-1.629.664-3.28.936-4.931C4.194,4.38,4.53,2.5,4.884.618Z" fill="#dcd9ff"/>
                </g>
                <g id="Group_6327" data-name="Group 6327" transform="translate(6.438 3.744)">
                  <path id="Path_20820" data-name="Path 20820" d="M5.442.438C5.756.29,6.074.142,6.4,0q-.933,4.523-2.07,9c-.4,1.623-.8,3.25-1.1,4.9-.328,1.639-.533,3.306-.822,4.955a98.85,98.85,0,0,1-2.33,9.767L0,28.607a98.814,98.814,0,0,1,1.74-9.89c.391-1.627.863-3.237,1.213-4.874.381-1.629.663-3.278.936-4.931Q4.578,4.658,5.442.438Z" fill="#dcd9ff"/>
                </g>
                <g id="Group_6328" data-name="Group 6328" transform="translate(9.657 2.402)">
                  <path id="Path_20821" data-name="Path 20821" d="M3.233,15.911c-.328,1.641-.533,3.306-.822,4.955a98.708,98.708,0,0,1-2.33,9.767L0,30.617a98.634,98.634,0,0,1,1.74-9.89c.391-1.627.863-3.239,1.213-4.874.381-1.629.664-3.28.936-4.931C4.465,7.36,5.126,3.813,5.895.29c.294-.1.6-.2.9-.29Q5.727,5.539,4.333,11.013C3.928,12.638,3.531,14.264,3.233,15.911Z" fill="#dcd9ff"/>
                </g>
                <g id="Group_6329" data-name="Group 6329" transform="translate(12.876 1.466)">
                  <path id="Path_20822" data-name="Path 20822" d="M4.331,12.617c-.4,1.623-.8,3.25-1.1,4.9C2.9,19.153,2.7,20.82,2.411,22.469a99.414,99.414,0,0,1-2.33,9.767L0,32.218a98.824,98.824,0,0,1,1.74-9.89c.391-1.627.863-3.237,1.212-4.874.381-1.629.664-3.278.936-4.931C4.558,8.391,5.346,4.281,6.282.2c.271-.067.539-.138.812-.2C6.321,4.236,5.389,8.438,4.331,12.617Z" fill="#dcd9ff"/>
                </g>
                <g id="Group_6330" data-name="Group 6330" transform="translate(16.094 0.792)">
                  <path id="Path_20823" data-name="Path 20823" d="M4.331,13.956c-.4,1.625-.8,3.25-1.1,4.9-.328,1.641-.535,3.306-.823,4.955A98.723,98.723,0,0,1,.081,33.575L0,33.559a98.642,98.642,0,0,1,1.74-9.89c.391-1.627.863-3.239,1.212-4.874.381-1.629.664-3.28.936-4.931C4.635,9.252,5.52,4.666,6.608.124,6.85.083,7.1.04,7.342,0,6.531,4.692,5.5,9.339,4.331,13.956Z" fill="#dcd9ff"/>
                </g>
                <g id="Group_6331" data-name="Group 6331" transform="translate(19.313 0.35)">
                  <path id="Path_20824" data-name="Path 20824" d="M4.331,15.065c-.4,1.623-.8,3.25-1.1,4.9C2.9,21.6,2.7,23.269,2.409,24.916A98.765,98.765,0,0,1,.081,34.685L0,34.667a98.715,98.715,0,0,1,1.74-9.89c.391-1.627.863-3.237,1.212-4.874.381-1.629.664-3.28.936-4.931C4.7,9.965,5.658,4.988,6.88.065,7.1.041,7.317.022,7.534,0,6.7,5.069,5.593,10.083,4.331,15.065Z" fill="#dcd9ff"/>
                </g>
                <g id="Group_6332" data-name="Group 6332" transform="translate(22.532 0.099)">
                  <path id="Path_20825" data-name="Path 20825" d="M4.331,15.982c-.4,1.625-.8,3.25-1.1,4.9C2.9,22.52,2.7,24.185,2.409,25.834A98.719,98.719,0,0,1,.081,35.6L0,35.585A98.6,98.6,0,0,1,1.74,25.7c.391-1.627.863-3.239,1.213-4.874.381-1.631.663-3.28.936-4.931C4.753,10.555,5.8,5.257,7.139.02,7.315.01,7.492.008,7.67,0,6.819,5.381,5.668,10.7,4.331,15.982Z" fill="#dcd9ff"/>
                </g>
                <g id="Group_6333" data-name="Group 6333" transform="translate(25.751 0)">
                  <path id="Path_20826" data-name="Path 20826" d="M4.331,16.746c-.4,1.625-.8,3.252-1.1,4.9C2.9,23.285,2.7,24.951,2.409,26.6A98.818,98.818,0,0,1,.081,36.368L0,36.35a98.824,98.824,0,0,1,1.74-9.89c.391-1.627.863-3.239,1.213-4.874.381-1.629.663-3.278.936-4.931C4.795,11.053,5.906,5.492,7.348,0c.144,0,.29.008.434.008C6.923,5.648,5.731,11.219,4.331,16.746Z" fill="#dcd9ff"/>
                </g>
                <g id="Group_6334" data-name="Group 6334" transform="translate(28.97 0.069)">
                  <path id="Path_20827" data-name="Path 20827" d="M4.331,17.344c-.4,1.625-.8,3.25-1.1,4.9C2.9,23.883,2.7,25.548,2.409,27.2A98.724,98.724,0,0,1,.081,36.964L0,36.948a98.616,98.616,0,0,1,1.74-9.89c.391-1.627.863-3.239,1.213-4.874.381-1.631.662-3.28.936-4.931A174.681,174.681,0,0,1,7.508,0c.12,0,.241,0,.361.008A173.829,173.829,0,0,1,4.331,17.344Z" fill="#dcd9ff"/>
                </g>
                <g id="Group_6335" data-name="Group 6335" transform="translate(32.189 0.287)">
                  <path id="Path_20828" data-name="Path 20828" d="M4.331,17.795c-.4,1.623-.8,3.25-1.1,4.9C2.9,24.331,2.7,26,2.409,27.645A98.741,98.741,0,0,1,.081,37.414L0,37.4a98.728,98.728,0,0,1,1.74-9.89c.391-1.627.863-3.239,1.213-4.874.381-1.629.661-3.28.936-4.931A173.617,173.617,0,0,1,7.627,0c.1.008.205.014.308.024A173.2,173.2,0,0,1,4.331,17.795Z" fill="#dcd9ff"/>
                </g>
                <g id="Group_6336" data-name="Group 6336" transform="translate(35.408 0.632)">
                  <path id="Path_20829" data-name="Path 20829" d="M4.331,18.115c-.4,1.625-.8,3.25-1.1,4.9-.328,1.641-.535,3.306-.824,4.955A99.267,99.267,0,0,1,.081,37.734L0,37.716a98.7,98.7,0,0,1,1.74-9.888c.389-1.629.861-3.239,1.212-4.874.381-1.631.662-3.28.936-4.933A171.762,171.762,0,0,1,7.713,0L7.98.034A172.1,172.1,0,0,1,4.331,18.115Z" fill="#dcd9ff"/>
                </g>
                <g id="Group_6337" data-name="Group 6337" transform="translate(38.627 1.098)">
                  <path id="Path_20830" data-name="Path 20830" d="M4.331,18.314c-.4,1.625-.8,3.252-1.1,4.9-.328,1.641-.535,3.308-.823,4.955A99.137,99.137,0,0,1,.081,37.933L0,37.918a98.746,98.746,0,0,1,1.74-9.89c.389-1.627.861-3.239,1.213-4.874.381-1.629.662-3.28.936-4.931A171.351,171.351,0,0,1,7.767,0c.081.012.162.03.243.043A171.475,171.475,0,0,1,4.331,18.314Z" fill="#dcd9ff"/>
                </g>
                <g id="Group_6338" data-name="Group 6338" transform="translate(41.845 1.683)">
                  <path id="Path_20831" data-name="Path 20831" d="M8.02.049A170.935,170.935,0,0,1,4.331,18.4c-.4,1.625-.8,3.25-1.1,4.9C2.9,24.936,2.7,26.6,2.409,28.249a98.858,98.858,0,0,1-2.33,9.767L0,38a98.606,98.606,0,0,1,1.74-9.89c.389-1.627.861-3.239,1.213-4.874.381-1.631.661-3.28.936-4.933A171,171,0,0,1,7.789,0C7.866.016,7.943.032,8.02.049Z" fill="#dcd9ff"/>
                </g>
                <g id="Group_6339" data-name="Group 6339" transform="translate(45.062 2.423)">
                  <path id="Path_20832" data-name="Path 20832" d="M4.333,18.322c-.4,1.625-.8,3.25-1.1,4.9-.328,1.641-.535,3.306-.823,4.955a98.609,98.609,0,0,1-2.33,9.767L0,37.926a99.282,99.282,0,0,1,1.742-9.89c.389-1.627.861-3.239,1.213-4.874.381-1.629.662-3.28.936-4.931A171.7,171.7,0,0,1,7.769,0c.081.02.162.038.241.057A171.82,171.82,0,0,1,4.333,18.322Z" fill="#dcd9ff"/>
                </g>
                <g id="Group_6340" data-name="Group 6340" transform="translate(48.281 3.278)">
                  <path id="Path_20833" data-name="Path 20833" d="M4.333,18.134c-.4,1.625-.8,3.25-1.1,4.9-.328,1.641-.533,3.306-.822,4.955a98.712,98.712,0,0,1-2.33,9.767L0,37.736a99.277,99.277,0,0,1,1.742-9.888c.389-1.629.861-3.239,1.213-4.876.379-1.629.662-3.278.936-4.931A172.005,172.005,0,0,1,7.719,0l.259.075A171.791,171.791,0,0,1,4.333,18.134Z" fill="#dcd9ff"/>
                </g>
                <g id="Group_6341" data-name="Group 6341" transform="translate(51.5 4.248)">
                  <path id="Path_20834" data-name="Path 20834" d="M4.333,17.83c-.4,1.625-.8,3.252-1.1,4.9-.328,1.641-.533,3.308-.821,4.955A98.589,98.589,0,0,1,.081,37.45L0,37.434a98.724,98.724,0,0,1,1.742-9.89c.389-1.627.861-3.239,1.213-4.874.379-1.629.661-3.28.936-4.931A173.151,173.151,0,0,1,7.638,0c.1.032.194.067.292.1A173.438,173.438,0,0,1,4.333,17.83Z" fill="#dcd9ff"/>
                </g>
                <g id="Group_6342" data-name="Group 6342" transform="translate(54.719 5.336)">
                  <path id="Path_20835" data-name="Path 20835" d="M4.333,17.41c-.4,1.625-.8,3.25-1.1,4.9-.328,1.639-.533,3.306-.822,4.955a98.865,98.865,0,0,1-2.33,9.767L0,37.011a98.693,98.693,0,0,1,1.742-9.888c.389-1.629.861-3.239,1.213-4.874.379-1.631.661-3.28.936-4.933A174.427,174.427,0,0,1,7.526,0c.115.043.223.093.336.138A175.492,175.492,0,0,1,4.333,17.41Z" fill="#dcd9ff"/>
                </g>
                <g id="Group_6343" data-name="Group 6343" transform="translate(57.938 6.588)">
                  <path id="Path_20836" data-name="Path 20836" d="M4.333,16.823c-.4,1.625-.8,3.25-1.1,4.9-.328,1.641-.533,3.306-.822,4.955a98.582,98.582,0,0,1-2.33,9.767L0,36.427a98.76,98.76,0,0,1,1.742-9.89c.389-1.627.861-3.239,1.212-4.874.379-1.629.662-3.28.936-4.931C4.8,11.1,5.918,5.518,7.37,0c.132.055.271.1.4.164C6.914,5.776,5.725,11.321,4.333,16.823Z" fill="#dcd9ff"/>
                </g>
                <g id="Group_6344" data-name="Group 6344" transform="translate(61.157 7.992)">
                  <path id="Path_20837" data-name="Path 20837" d="M4.333,16.086c-.4,1.623-.8,3.25-1.1,4.9C2.9,22.625,2.7,24.29,2.411,25.939a98.851,98.851,0,0,1-2.33,9.767L0,35.688A98.683,98.683,0,0,1,1.742,25.8c.389-1.629.861-3.239,1.212-4.876.379-1.629.662-3.278.936-4.931C4.759,10.616,5.816,5.279,7.172,0c.158.079.322.15.48.229C6.8,5.569,5.658,10.845,4.333,16.086Z" fill="#dcd9ff"/>
                </g>
                <g id="Group_6345" data-name="Group 6345" transform="translate(64.376 9.556)">
                  <path id="Path_20838" data-name="Path 20838" d="M4.333,15.188c-.4,1.625-.8,3.25-1.1,4.9C2.9,21.726,2.7,23.391,2.411,25.04a98.731,98.731,0,0,1-2.33,9.767L0,34.792A98.733,98.733,0,0,1,1.742,24.9c.389-1.627.861-3.239,1.211-4.874.381-1.629.663-3.28.938-4.931C4.71,10.024,5.687,4.984,6.931,0c.192.107.385.211.575.318C6.673,5.322,5.577,10.271,4.333,15.188Z" fill="#dcd9ff"/>
                </g>
                <g id="Group_6346" data-name="Group 6346" transform="translate(67.594 11.316)">
                  <path id="Path_20839" data-name="Path 20839" d="M4.333,14.1c-.4,1.623-.8,3.25-1.1,4.9C2.9,20.632,2.7,22.3,2.411,23.948a98.857,98.857,0,0,1-2.33,9.767L0,33.7a99.37,99.37,0,0,1,1.74-9.89c.391-1.627.863-3.237,1.212-4.874.381-1.629.664-3.278.938-4.931.76-4.7,1.661-9.374,2.778-14,.209.134.417.271.624.4C6.487,5.006,5.478,9.566,4.333,14.1Z" fill="#dcd9ff"/>
                </g>
                <g id="Group_6347" data-name="Group 6347" transform="translate(70.813 13.31)">
                  <path id="Path_20840" data-name="Path 20840" d="M3.233,17.664C2.9,19.305,2.7,20.97,2.411,22.619a98.635,98.635,0,0,1-2.33,9.767L0,32.37a98.618,98.618,0,0,1,1.74-9.89c.391-1.627.863-3.239,1.213-4.874.381-1.629.663-3.28.936-4.931C4.578,8.422,5.391,4.194,6.363,0c.227.166.444.338.666.508-.76,4.115-1.669,8.2-2.7,12.259C3.928,14.392,3.531,16.017,3.233,17.664Z" fill="#dcd9ff"/>
                </g>
                <g id="Group_6348" data-name="Group 6348" transform="translate(74.032 15.563)">
                  <path id="Path_20841" data-name="Path 20841" d="M4.333,11.181c-.4,1.623-.8,3.25-1.1,4.9-.328,1.639-.533,3.306-.822,4.955A98.843,98.843,0,0,1,.081,30.8L0,30.783a98.828,98.828,0,0,1,1.74-9.89c.391-1.627.863-3.237,1.213-4.874.381-1.629.663-3.278.936-4.931Q4.792,5.514,6,0c.239.209.484.417.713.626C6.019,4.165,5.217,7.682,4.333,11.181Z" fill="#dcd9ff"/>
                </g>
                <g id="Group_6349" data-name="Group 6349" transform="translate(77.251 18.231)">
                  <path id="Path_20842" data-name="Path 20842" d="M5.565,0c.243.261.476.523.7.784Q5.387,5,4.333,9.179c-.4,1.625-.8,3.25-1.1,4.9-.328,1.641-.533,3.306-.822,4.955A98.711,98.711,0,0,1,.081,28.8L0,28.782a98.739,98.739,0,0,1,1.74-9.89c.391-1.627.863-3.239,1.213-4.874.381-1.629.664-3.28.936-4.931Q4.629,4.523,5.565,0Z" fill="#dcd9ff"/>
                </g>
                <g id="Group_6350" data-name="Group 6350" transform="translate(80.47 21.551)">
                  <path id="Path_20843" data-name="Path 20843" d="M5.038,0q.329.471.626.944C5.241,2.81,4.8,4.67,4.331,6.527c-.4,1.623-.8,3.25-1.1,4.9C2.9,13.063,2.7,14.73,2.409,16.379A98.846,98.846,0,0,1,.081,26.146L0,26.128a98.824,98.824,0,0,1,1.74-9.89C2.131,14.611,2.6,13,2.952,11.365c.381-1.629.664-3.278.936-4.931C4.238,4.283,4.627,2.139,5.038,0Z" fill="#dcd9ff"/>
                </g>
                <g id="Group_6351" data-name="Group 6351" transform="translate(83.689 26.247)">
                  <path id="Path_20844" data-name="Path 20844" d="M.081,22.115,0,22.1a98.631,98.631,0,0,1,1.74-9.89c.391-1.627.863-3.239,1.212-4.874.381-1.629.663-3.28.936-4.931C4.019,1.6,4.167.8,4.3,0c.134.367.257.737.363,1.1-.115.464-.219.93-.338,1.394-.4,1.625-.8,3.251-1.1,4.9C2.9,9.035,2.7,10.7,2.409,12.348A98.7,98.7,0,0,1,.081,22.115Z" fill="#dcd9ff"/>
                </g>
              </g>
            </g>
            <g id="Group_6358" data-name="Group 6358" transform="translate(0 7.884)">
              <g id="Group_6354" data-name="Group 6354" transform="translate(0 0)">
                <path id="Path_20922" data-name="Path 20922" d="M44.686,47.454c24.68,0,44.686-10.623,44.686-23.727S69.366,0,44.686,0,0,10.623,0,23.727,20.007,47.454,44.686,47.454Z" transform="translate(9.621 0) rotate(11.697)" fill="#036693"/>
              </g>
              <g id="Group_6355" data-name="Group 6355" transform="translate(9.339 11.05)">
                <path id="Path_20845" data-name="Path 20845" d="M28.96,0A51.043,51.043,0,0,0,14.8,1.852C6.58,4.25,1.414,8.671.247,14.3s1.823,11.738,8.413,17.2C22.046,42.6,46.516,47.671,63.214,42.8c8.217-2.4,13.385-6.819,14.548-12.449s-1.821-11.74-8.41-17.2C59.423,4.915,43.389,0,28.96,0ZM49.008,43.562c-14.165,0-29.9-4.822-39.647-12.905C3.1,25.465.247,19.736,1.325,14.524S7.3,5.188,15.1,2.909C31.49-1.872,55.511,3.1,68.651,14h0c6.26,5.192,9.114,10.919,8.033,16.132S70.712,39.464,62.9,41.743A50,50,0,0,1,49.008,43.562Z" fill="#f46a6a"/>
              </g>
            </g>
          </g>
          <g id="Group_6395" data-name="Group 6395" transform="translate(77.375 56.26)">
            <g id="Group_6389" data-name="Group 6389" transform="translate(1.93 0)">
              <g id="Group_6360" data-name="Group 6360" transform="translate(0)">
                <path id="Path_20847" data-name="Path 20847" d="M5.706,55.832l84.706-28.5L85.38,12.379h0C83.445,6.622,77.373,2.258,67.625.651,48.13-2.566,21.313,6.459,7.728,20.807.937,27.98-1.263,35.126.675,40.883h0Z" fill="#036693"/>
              </g>
              <g id="Group_6388" data-name="Group 6388" transform="translate(0.215 0.033)">
                <g id="Group_6361" data-name="Group 6361" transform="translate(0 33.068)">
                  <path id="Path_20848" data-name="Path 20848" d="M0,1.139Q.092.574.229,0C.462.78.7,1.556.93,2.34c.47,1.605.948,3.211,1.523,4.781C3,8.7,3.659,10.245,4.242,11.815a98.5,98.5,0,0,1,2.915,9.609l-.077.026a99.2,99.2,0,0,1-3.487-9.416C3.108,10.431,2.7,8.8,2.18,7.214,1.688,5.614,1.1,4.048.5,2.482.33,2.038.17,1.588,0,1.139Z" fill="#f46a6a"/>
                </g>
                <g id="Group_6362" data-name="Group 6362" transform="translate(1.623 28.109)">
                  <path id="Path_20849" data-name="Path 20849" d="M0,1.011C.158.675.33.338.507,0c.666,2.073,1.311,4.155,1.916,6.25.47,1.605.948,3.211,1.521,4.783.545,1.582,1.207,3.124,1.789,4.692A99.067,99.067,0,0,1,8.65,25.334l-.079.026a98.7,98.7,0,0,1-3.485-9.416c-.484-1.6-.889-3.231-1.412-4.82-.494-1.6-1.082-3.166-1.679-4.73Q.961,3.713,0,1.011Z" fill="#f46a6a"/>
                </g>
                <g id="Group_6363" data-name="Group 6363" transform="translate(3.799 24.491)">
                  <path id="Path_20850" data-name="Path 20850" d="M0,.863C.2.575.4.288.606,0Q2.084,4.375,3.361,8.819c.47,1.605.948,3.211,1.523,4.783.545,1.582,1.207,3.124,1.789,4.692A99.055,99.055,0,0,1,9.59,27.9l-.079.026a98.467,98.467,0,0,1-3.485-9.416c-.486-1.6-.891-3.231-1.412-4.82-.494-1.6-1.084-3.166-1.681-4.73Q1.38,4.941,0,.863Z" fill="#f46a6a"/>
                </g>
                <g id="Group_6364" data-name="Group 6364" transform="translate(6.215 21.507)">
                  <path id="Path_20851" data-name="Path 20851" d="M5.583,15.537c.545,1.582,1.207,3.124,1.789,4.692a98.532,98.532,0,0,1,2.917,9.609l-.079.026a99.023,99.023,0,0,1-3.485-9.416c-.484-1.6-.889-3.231-1.412-4.82-.494-1.6-1.082-3.166-1.679-4.73Q1.684,5.848,0,.707C.2.472.423.235.634,0Q2.506,5.323,4.062,10.755C4.532,12.362,5.01,13.966,5.583,15.537Z" fill="#f46a6a"/>
                </g>
                <g id="Group_6365" data-name="Group 6365" transform="translate(8.813 18.926)">
                  <path id="Path_20852" data-name="Path 20852" d="M4.578,12.287c.47,1.608.95,3.211,1.522,4.783.545,1.582,1.207,3.124,1.789,4.692a99.082,99.082,0,0,1,2.917,9.609l-.079.028a98.519,98.519,0,0,1-3.485-9.418c-.484-1.6-.891-3.231-1.412-4.82-.494-1.6-1.082-3.166-1.681-4.73C2.642,8.523,1.25,4.578,0,.583.2.389.4.194.6,0,2.068,4.048,3.383,8.148,4.578,12.287Z" fill="#f46a6a"/>
                </g>
                <g id="Group_6366" data-name="Group 6366" transform="translate(11.495 16.596)">
                  <path id="Path_20853" data-name="Path 20853" d="M5.012,13.569c.47,1.607.948,3.211,1.523,4.783.543,1.582,1.207,3.124,1.789,4.694a98.439,98.439,0,0,1,2.915,9.607l-.077.028a99.057,99.057,0,0,1-3.487-9.418c-.484-1.6-.889-3.231-1.412-4.82-.492-1.6-1.082-3.166-1.679-4.73C2.9,9.353,1.351,4.949,0,.478.19.318.377.158.571,0,2.237,4.461,3.691,8.993,5.012,13.569Z" fill="#f46a6a"/>
                </g>
                <g id="Group_6367" data-name="Group 6367" transform="translate(14.258 14.495)">
                  <path id="Path_20854" data-name="Path 20854" d="M5.365,14.621c.47,1.607.948,3.211,1.521,4.783.545,1.582,1.207,3.124,1.789,4.694a99.048,99.048,0,0,1,2.917,9.607l-.079.028a98.516,98.516,0,0,1-3.485-9.418c-.484-1.6-.889-3.231-1.412-4.818-.494-1.6-1.082-3.168-1.679-4.732C3.11,10.034,1.426,5.253,0,.385.174.255.353.128.529,0,2.366,4.8,3.94,9.684,5.365,14.621Z" fill="#f46a6a"/>
                </g>
                <g id="Group_6368" data-name="Group 6368" transform="translate(17.109 12.585)">
                  <path id="Path_20855" data-name="Path 20855" d="M5.628,15.482c.47,1.607.948,3.211,1.523,4.783.543,1.582,1.207,3.124,1.789,4.694a99.065,99.065,0,0,1,2.917,9.609l-.079.026a98.5,98.5,0,0,1-3.485-9.418c-.486-1.6-.891-3.231-1.412-4.818-.494-1.6-1.084-3.166-1.681-4.732C3.254,10.585,1.483,5.482,0,.284.146.188.3.095.448,0,2.429,5.075,4.117,10.249,5.628,15.482Z" fill="#f46a6a"/>
                </g>
                <g id="Group_6369" data-name="Group 6369" transform="translate(20.008 10.826)">
                  <path id="Path_20856" data-name="Path 20856" d="M5.845,16.2c.47,1.605.948,3.209,1.521,4.783C7.911,22.56,8.572,24.1,9.155,25.67a98.527,98.527,0,0,1,2.917,9.609l-.079.026a99.207,99.207,0,0,1-3.485-9.416c-.484-1.6-.889-3.231-1.412-4.82-.494-1.6-1.082-3.166-1.679-4.73C3.373,11.043,1.526,5.681,0,.211.125.138.255.073.379,0,2.484,5.3,4.264,10.715,5.845,16.2Z" fill="#f46a6a"/>
                </g>
                <g id="Group_6370" data-name="Group 6370" transform="translate(22.961 9.216)">
                  <path id="Path_20857" data-name="Path 20857" d="M6.007,16.756c.47,1.606.948,3.211,1.523,4.783.545,1.582,1.207,3.124,1.789,4.692a99.071,99.071,0,0,1,2.917,9.609l-.079.026A98.676,98.676,0,0,1,8.671,26.45c-.486-1.6-.891-3.231-1.412-4.82-.494-1.6-1.082-3.166-1.681-4.73A175.277,175.277,0,0,1,0,.178C.109.12.209.057.318,0A174.051,174.051,0,0,1,6.007,16.756Z" fill="#f46a6a"/>
                </g>
                <g id="Group_6371" data-name="Group 6371" transform="translate(25.954 7.763)">
                  <path id="Path_20858" data-name="Path 20858" d="M6.13,17.161c.47,1.606.948,3.211,1.523,4.783.543,1.582,1.207,3.124,1.789,4.692a98.478,98.478,0,0,1,2.915,9.609l-.077.026a99.2,99.2,0,0,1-3.487-9.416c-.484-1.6-.889-3.231-1.412-4.82C6.888,20.435,6.3,18.869,5.7,17.3A172.923,172.923,0,0,1,0,.134C.093.091.184.043.276,0A172.993,172.993,0,0,1,6.13,17.161Z" fill="#f46a6a"/>
                </g>
                <g id="Group_6372" data-name="Group 6372" transform="translate(28.982 6.422)">
                  <path id="Path_20859" data-name="Path 20859" d="M6.219,17.453c.47,1.607.948,3.211,1.521,4.783.545,1.582,1.207,3.124,1.789,4.692a99.082,99.082,0,0,1,2.917,9.609l-.079.026a98.283,98.283,0,0,1-3.485-9.416c-.484-1.6-.889-3.231-1.412-4.82-.494-1.6-1.082-3.166-1.679-4.73A172.049,172.049,0,0,1,0,.107L.249,0A172.424,172.424,0,0,1,6.219,17.453Z" fill="#f46a6a"/>
                </g>
                <g id="Group_6373" data-name="Group 6373" transform="translate(32.041 5.194)">
                  <path id="Path_20860" data-name="Path 20860" d="M6.274,17.633c.47,1.607.948,3.211,1.523,4.783C8.339,24,9,25.54,9.586,27.11A98.46,98.46,0,0,1,12.5,36.717l-.077.026a98.257,98.257,0,0,1-3.485-9.416c-.486-1.6-.891-3.231-1.412-4.82-.494-1.6-1.084-3.166-1.681-4.73A172.033,172.033,0,0,1,0,.085C.077.055.156.03.233,0A171.84,171.84,0,0,1,6.274,17.633Z" fill="#f46a6a"/>
                </g>
                <g id="Group_6374" data-name="Group 6374" transform="translate(35.135 4.074)">
                  <path id="Path_20861" data-name="Path 20861" d="M.225,0A171.967,171.967,0,0,1,6.3,17.7c.47,1.607.948,3.211,1.521,4.783.545,1.582,1.207,3.124,1.789,4.694a98.507,98.507,0,0,1,2.917,9.607l-.079.028A99.054,99.054,0,0,1,8.958,27.4c-.484-1.6-.889-3.231-1.412-4.82-.494-1.6-1.082-3.166-1.679-4.73A171,171,0,0,1,0,.077Z" fill="#f46a6a"/>
                </g>
                <g id="Group_6375" data-name="Group 6375" transform="translate(38.271 3.104)">
                  <path id="Path_20862" data-name="Path 20862" d="M6.274,17.625c.47,1.607.948,3.211,1.523,4.783C8.341,23.989,9,25.532,9.586,27.1A99.045,99.045,0,0,1,12.5,36.709l-.079.028a98.509,98.509,0,0,1-3.485-9.418c-.486-1.6-.891-3.231-1.412-4.818-.494-1.6-1.082-3.168-1.681-4.732A171.617,171.617,0,0,1,0,.073C.079.049.156.022.235,0A171.525,171.525,0,0,1,6.274,17.625Z" fill="#f46a6a"/>
                </g>
                <g id="Group_6376" data-name="Group 6376" transform="translate(41.437 2.249)">
                  <path id="Path_20863" data-name="Path 20863" d="M6.224,17.433c.47,1.605.948,3.209,1.522,4.781.543,1.584,1.207,3.124,1.789,4.694a98.326,98.326,0,0,1,2.915,9.609l-.077.026a99.045,99.045,0,0,1-3.487-9.418C8.4,25.524,8,23.895,7.474,22.307c-.494-1.6-1.082-3.166-1.679-4.732A172.231,172.231,0,0,1,0,.065L.263,0A172.391,172.391,0,0,1,6.224,17.433Z" fill="#f46a6a"/>
                </g>
                <g id="Group_6377" data-name="Group 6377" transform="translate(44.636 1.509)">
                  <path id="Path_20864" data-name="Path 20864" d="M6.141,17.125c.47,1.606.948,3.211,1.521,4.783.545,1.582,1.207,3.124,1.789,4.692a99.087,99.087,0,0,1,2.917,9.609l-.079.026A98.532,98.532,0,0,1,8.8,26.817c-.484-1.6-.889-3.231-1.412-4.818-.494-1.6-1.082-3.166-1.679-4.73A173.2,173.2,0,0,1,0,.061C.1.04.2.022.3,0A173.443,173.443,0,0,1,6.141,17.125Z" fill="#f46a6a"/>
                </g>
                <g id="Group_6378" data-name="Group 6378" transform="translate(47.866 0.891)">
                  <path id="Path_20865" data-name="Path 20865" d="M6.025,16.695c.47,1.606.948,3.211,1.523,4.783.543,1.582,1.207,3.124,1.789,4.692a98.516,98.516,0,0,1,2.915,9.609l-.077.026a99.209,99.209,0,0,1-3.487-9.416c-.484-1.6-.889-3.231-1.41-4.82-.494-1.6-1.084-3.166-1.681-4.73A174.6,174.6,0,0,1,0,.051C.12.032.239.02.359,0A175.124,175.124,0,0,1,6.025,16.695Z" fill="#f46a6a"/>
                </g>
                <g id="Group_6379" data-name="Group 6379" transform="translate(51.143 0.417)">
                  <path id="Path_20866" data-name="Path 20866" d="M5.865,16.12c.47,1.607.948,3.211,1.521,4.783.545,1.582,1.207,3.124,1.789,4.692A99.081,99.081,0,0,1,12.092,35.2l-.079.026a99.011,99.011,0,0,1-3.485-9.416c-.484-1.6-.889-3.231-1.412-4.82-.494-1.6-1.082-3.165-1.679-4.73C3.383,10.944,1.53,5.557,0,.061.142.043.286.016.429,0,2.52,5.279,4.291,10.666,5.865,16.12Z" fill="#f46a6a"/>
                </g>
                <g id="Group_6380" data-name="Group 6380" transform="translate(54.46 0.123)">
                  <path id="Path_20867" data-name="Path 20867" d="M5.662,15.366c.47,1.607.948,3.211,1.523,4.783.545,1.582,1.207,3.124,1.789,4.692A99.063,99.063,0,0,1,11.89,34.45l-.079.026A98.276,98.276,0,0,1,8.326,25.06c-.486-1.6-.891-3.231-1.412-4.82-.494-1.6-1.082-3.166-1.68-4.73C3.272,10.427,1.491,5.284,0,.043.176.032.353.012.529,0,2.49,5.038,4.163,10.172,5.662,15.366Z" fill="#f46a6a"/>
                </g>
                <g id="Group_6381" data-name="Group 6381" transform="translate(57.821 0)">
                  <path id="Path_20868" data-name="Path 20868" d="M5.417,14.44c.47,1.607.948,3.211,1.523,4.783.543,1.582,1.207,3.124,1.789,4.694a98.32,98.32,0,0,1,2.915,9.607l-.077.028a99.055,99.055,0,0,1-3.487-9.418c-.484-1.6-.889-3.231-1.412-4.82-.494-1.6-1.082-3.166-1.679-4.73C3.138,9.791,1.438,4.945,0,.014.217.008.436,0,.656,0,2.461,4.74,4.011,9.566,5.417,14.44Z" fill="#f46a6a"/>
                </g>
                <g id="Group_6382" data-name="Group 6382" transform="translate(61.259 0.042)">
                  <path id="Path_20869" data-name="Path 20869" d="M5.093,13.349c.472,1.607.95,3.211,1.522,4.783.545,1.582,1.207,3.124,1.789,4.694a99.045,99.045,0,0,1,2.917,9.607l-.079.028a98.523,98.523,0,0,1-3.485-9.418c-.484-1.6-.889-3.231-1.412-4.82-.494-1.6-1.082-3.166-1.679-4.73C2.95,9.05,1.37,4.562,0,0,.249.01.5.024.744.036,2.37,4.416,3.8,8.861,5.093,13.349Z" fill="#f46a6a"/>
                </g>
                <g id="Group_6383" data-name="Group 6383" transform="translate(64.782 0.294)">
                  <path id="Path_20870" data-name="Path 20870" d="M6.209,16.831C6.752,18.413,7.415,19.955,8,21.525a98.472,98.472,0,0,1,2.915,9.607l-.077.028a99.064,99.064,0,0,1-3.487-9.418c-.484-1.6-.889-3.231-1.41-4.82-.494-1.6-1.084-3.166-1.681-4.73C2.707,8.174,1.276,4.113,0,0,.278.03.553.067.829.1c1.42,3.938,2.7,7.923,3.857,11.945C5.156,13.656,5.634,15.259,6.209,16.831Z" fill="#f46a6a"/>
                </g>
                <g id="Group_6384" data-name="Group 6384" transform="translate(68.384 0.8)">
                  <path id="Path_20871" data-name="Path 20871" d="M4.2,10.494c.47,1.607.948,3.211,1.521,4.785.545,1.58,1.207,3.124,1.789,4.692a98.9,98.9,0,0,1,2.917,9.609l-.079.026a99.051,99.051,0,0,1-3.485-9.418c-.484-1.6-.889-3.231-1.412-4.818-.494-1.6-1.082-3.166-1.679-4.732Q1.737,5.371,0,0C.312.059.628.117.932.18Q2.709,5.289,4.2,10.494Z" fill="#f46a6a"/>
                </g>
                <g id="Group_6385" data-name="Group 6385" transform="translate(72.132 1.7)">
                  <path id="Path_20872" data-name="Path 20872" d="M0,0C.344.1.677.209,1.007.32Q2.37,4.4,3.566,8.547c.47,1.605.948,3.211,1.523,4.783.545,1.582,1.207,3.124,1.789,4.692a99.084,99.084,0,0,1,2.917,9.609l-.079.026A98.64,98.64,0,0,1,6.23,18.241c-.486-1.6-.891-3.233-1.412-4.82-.494-1.6-1.082-3.166-1.681-4.73Q1.473,4.378,0,0Z" fill="#f46a6a"/>
                </g>
                <g id="Group_6386" data-name="Group 6386" transform="translate(76.133 3.207)">
                  <path id="Path_20873" data-name="Path 20873" d="M0,0C.346.162.687.326,1.015.5Q1.88,3.234,2.682,5.991C3.152,7.6,3.63,9.2,4.2,10.774c.543,1.582,1.2,3.124,1.789,4.692a99.057,99.057,0,0,1,2.915,9.609l-.077.026a99.216,99.216,0,0,1-3.487-9.416c-.484-1.6-.889-3.231-1.412-4.82C3.438,9.266,2.85,7.7,2.253,6.136,1.467,4.1.723,2.054,0,0Z" fill="#f46a6a"/>
                </g>
                <g id="Group_6387" data-name="Group 6387" transform="translate(80.648 6.007)">
                  <path id="Path_20874" data-name="Path 20874" d="M7.51,21.227l-.079.026a98.285,98.285,0,0,1-3.485-9.416c-.484-1.6-.889-3.231-1.412-4.82C2.04,5.417,1.451,3.851.855,2.287.561,1.526.284.762,0,0,.3.251.594.506.871.768c.134.458.278.914.411,1.374.472,1.605.95,3.211,1.522,4.783.545,1.582,1.207,3.124,1.789,4.692A99.082,99.082,0,0,1,7.51,21.227Z" fill="#f46a6a"/>
                </g>
              </g>
            </g>
            <g id="Group_6394" data-name="Group 6394" transform="translate(0 4.635)">
              <g id="Group_6390" data-name="Group 6390" transform="translate(0 0)">
                <ellipse id="Ellipse_163" data-name="Ellipse 163" cx="23.727" cy="44.686" rx="23.727" ry="44.686" transform="translate(84.705 0) rotate(71.401)" fill="#fff"/>
              </g>
              <g id="Group_6391" data-name="Group 6391" transform="translate(12.135 13.982)">
                <path id="Path_20875" data-name="Path 20875" d="M52.377,0C36.311,0,17.234,7.433,6.908,18.342,1.023,24.556-1.208,30.98.625,36.429s7.494,9.216,15.94,10.611c17.157,2.832,40.846-5.14,52.8-17.769,5.887-6.215,8.116-12.641,6.286-18.089S68.158,1.965,59.71.571h0A45.233,45.233,0,0,0,52.377,0ZM23.945,46.514a44.056,44.056,0,0,1-7.2-.563C8.719,44.63,3.366,41.121,1.667,36.077S2.116,25,7.708,19.1C19.44,6.7,42.689-1.131,59.532,1.659c8.023,1.323,13.379,4.83,15.075,9.874s-.448,11.075-6.039,16.981C58.432,39.219,39.709,46.514,23.945,46.514Z" fill="#036693"/>
              </g>
            </g>
          </g>
        </g>
      </g>
    </g>
  </g>
</svg>
